<?xml version="1.0" encoding="UTF-8" standalone="no"?>
<!-- Created with Inkscape (http://www.inkscape.org/) -->

<svg
   xmlns:dc="http://purl.org/dc/elements/1.1/"
   xmlns:cc="http://creativecommons.org/ns#"
   xmlns:rdf="http://www.w3.org/1999/02/22-rdf-syntax-ns#"
   xmlns:svg="http://www.w3.org/2000/svg"
   xmlns="http://www.w3.org/2000/svg"
   xmlns:sodipodi="http://sodipodi.sourceforge.net/DTD/sodipodi-0.dtd"
   xmlns:inkscape="http://www.inkscape.org/namespaces/inkscape"
   width="128"
   height="32"
   viewBox="0 0 33.866666 8.4666669"
   version="1.1"
   id="svg3805"
   inkscape:version="0.92.1 r15371"
   sodipodi:docname="airplane_map_a.svg">
  <defs
     id="defs3799" />
  <sodipodi:namedview
     id="base"
     pagecolor="#ffffff"
     bordercolor="#666666"
     borderopacity="1.0"
     inkscape:pageopacity="0.0"
     inkscape:pageshadow="2"
     inkscape:zoom="7.9195959"
     inkscape:cx="68.035618"
     inkscape:cy="16.197356"
     inkscape:document-units="px"
     inkscape:current-layer="layer1"
     showgrid="false"
     units="px"
     inkscape:window-width="1920"
     inkscape:window-height="1053"
     inkscape:window-x="0"
     inkscape:window-y="27"
     inkscape:window-maximized="1" />
  <metadata
     id="metadata3802">
    <rdf:RDF>
      <cc:Work
         rdf:about="">
        <dc:format>image/svg+xml</dc:format>
        <dc:type
           rdf:resource="http://purl.org/dc/dcmitype/StillImage" />
        <dc:title></dc:title>
      </cc:Work>
    </rdf:RDF>
  </metadata>
  <g
     inkscape:label="Ebene 1"
     inkscape:groupmode="layer"
     id="layer1"
     transform="translate(0,-288.53332)">
    <path
       style="fill:none;stroke:#000000;stroke-width:0.26458332px;stroke-linecap:butt;stroke-linejoin:miter;stroke-opacity:1"
       d="m 7.3833205,291.15347 c -0.03341,-0.0446 -0.06085,-0.0943 -0.100226,-0.13364 -0.01575,-0.0157 -0.0469,0.01 -0.06682,0 -0.139038,-0.0695 0.03572,0.002 -0.03341,-0.0668 -0.0079,-0.008 -0.02553,0.008 -0.03341,0 -0.0079,-0.008 0.0079,-0.0255 0,-0.0334 -0.0079,-0.008 -0.02345,0.005 -0.03341,0 -0.01409,-0.007 -0.01932,-0.0264 -0.03341,-0.0334 -0.01992,-0.01 -0.05107,0.0157 -0.06682,0 -0.0079,-0.008 0.0079,-0.0255 0,-0.0334 -0.0079,-0.008 -0.02345,0.005 -0.03341,0 -0.01409,-0.007 -0.01932,-0.0264 -0.03341,-0.0334 -0.01992,-0.01 -0.05107,0.0157 -0.06682,0 -0.06912,-0.0691 0.10563,0.003 -0.03341,-0.0668 -0.02673,-0.0134 -0.0735,0.0134 -0.100226,0 -0.01409,-0.007 -0.01932,-0.0264 -0.03341,-0.0334 -0.01,-0.005 -0.02345,0.005 -0.03341,0 -0.01409,-0.007 -0.01932,-0.0264 -0.03341,-0.0334 -0.01992,-0.01 -0.05107,0.0157 -0.06682,0 -0.0079,-0.008 0.0079,-0.0255 0,-0.0334 -0.01034,-0.0104 -0.156698,0.0103 -0.167043,0 -0.0079,-0.008 0.01,-0.0284 0,-0.0334 -0.01992,-0.01 -0.04569,0.007 -0.06682,0 -0.01494,-0.005 -0.01932,-0.0264 -0.03341,-0.0334 -0.0086,-0.004 -0.176772,0 -0.200452,0 -0.01114,0 -0.02345,0.005 -0.03341,0 -0.01409,-0.007 -0.01932,-0.0264 -0.03341,-0.0334 -0.01,-0.005 -0.02345,0.005 -0.03341,0 -0.01409,-0.007 -0.01932,-0.0264 -0.03341,-0.0334 -0.01,-0.005 -0.02227,0 -0.03341,0 -0.01114,0 -0.02227,0 -0.03341,0 -0.05568,0 -0.111363,0 -0.167044,0 -0.03341,0 -0.06853,0.0106 -0.100226,0 -0.01494,-0.005 -0.01932,-0.0264 -0.03341,-0.0334 -0.01,-0.005 -0.02227,0 -0.03341,0 -0.01114,0 -0.02227,0 -0.03341,0 -0.06682,0 -0.133635,0 -0.200452,0 -0.100226,0 -0.200452,0 -0.300678,0 -0.01747,0 -0.124851,-0.004 -0.133635,0 -0.01409,0.007 -0.01932,0.0264 -0.03341,0.0334 -0.01218,0.006 -0.147793,0 -0.167043,0 -0.0081,0 -0.09915,-10e-4 -0.100226,0 -0.0079,0.008 0.0079,0.0255 0,0.0334 -0.0068,0.007 -0.08698,-0.007 -0.100226,0 -0.01409,0.007 -0.01932,0.0264 -0.03341,0.0334 -0.02673,0.0134 -0.0735,-0.0134 -0.100226,0 -0.01409,0.007 -0.01847,0.0284 -0.03341,0.0334 -0.02113,0.007 -0.0469,-0.01 -0.06682,0 -0.01,0.005 0.0079,0.0255 0,0.0334 -0.0167,0.0167 -0.08352,-0.0167 -0.100226,0 -0.0079,0.008 0.0079,0.0255 0,0.0334 -0.01575,0.0157 -0.0469,-0.01 -0.06682,0 -0.01409,0.007 -0.01932,0.0264 -0.03341,0.0334 -0.01325,0.007 -0.0934,-0.007 -0.100227,0 -0.0079,0.008 0.0079,0.0255 0,0.0334 -0.01575,0.0158 -0.04569,-0.007 -0.06682,0 -0.02227,0.0111 -0.04454,0.0223 -0.06682,0.0334 0,0.0111 0.0079,0.0255 0,0.0334 -0.0167,0.0167 -0.08352,-0.0167 -0.100226,0 -0.0079,0.008 0.0079,0.0255 0,0.0334 -0.0079,0.008 -0.02345,-0.005 -0.03341,0 -0.01409,0.007 -0.01932,0.0264 -0.03341,0.0334 -0.01,0.005 -0.02553,-0.008 -0.03341,0 -0.0079,0.008 0.0079,0.0255 0,0.0334 -0.0079,0.008 -0.02345,-0.005 -0.03341,0 -0.01409,0.007 -0.01932,0.0264 -0.03341,0.0334 -0.01,0.005 -0.02345,-0.005 -0.03341,0 -0.02817,0.0141 -0.03864,0.0527 -0.06682,0.0668 -0.01,0.005 -0.02345,-0.005 -0.03341,0 -0.139039,0.0695 0.03572,-0.002 -0.03341,0.0668 -0.0079,0.008 -0.02345,-0.005 -0.03341,0 -0.03288,0.0164 -0.10076,0.1172 -0.133635,0.13364 -0.01,0.005 -0.02553,-0.008 -0.03341,0 -0.0079,0.008 0.0079,0.0255 0,0.0334 -0.0079,0.008 -0.02554,-0.008 -0.03341,0 -0.06912,0.0691 0.10563,-0.003 -0.03341,0.0668 -0.01,0.005 -0.02553,-0.008 -0.03341,0 -0.01575,0.0158 0.01575,0.0511 0,0.0668 -0.0079,0.008 -0.02345,-0.005 -0.03341,0 -0.07387,0.0369 -0.01037,0.0207 -0.03341,0.0668 -0.02004,0.0401 -0.08018,0.0601 -0.100226,0.10022 -0.01,0.0199 0.01575,0.0511 0,0.0668 -0.0079,0.008 -0.02554,-0.008 -0.03341,0 -0.102544,0.10254 0.01952,0.0278 -0.03341,0.13364 -0.005,0.01 -0.02553,-0.008 -0.03341,0 -0.0079,0.008 0.005,0.0234 0,0.0334 -0.007,0.0141 -0.02637,0.0193 -0.03341,0.0334 -0.01,0.0199 0.01,0.0469 0,0.0668 -0.007,0.0141 -0.02637,0.0193 -0.03341,0.0334 -0.0051,0.0102 0,0.0852 0,0.10022 0,0.0668 0,0.13364 0,0.20046 0,0.0158 -0.0015,0.16553 0,0.16704 0.0079,0.008 0.02843,-0.01 0.03341,0 0.0061,0.0122 -0.0065,0.16054 0,0.16704 0.0079,0.008 0.02843,-0.01 0.03341,0 0.01,0.0199 -0.007,0.0457 0,0.0668 0.005,0.0149 0.02637,0.0193 0.03341,0.0334 0.0066,0.0133 -0.0068,0.0934 0,0.10023 0.0079,0.008 0.02553,-0.008 0.03341,0 0.0079,0.008 -0.005,0.0234 0,0.0334 0.007,0.0141 0.02637,0.0193 0.03341,0.0334 0.01,0.0199 -0.01575,0.0511 0,0.0668 0.0079,0.008 0.02553,-0.008 0.03341,0 0.01575,0.0157 -0.01,0.0469 0,0.0668 0.01409,0.0282 0.05273,0.0386 0.06682,0.0668 0.005,0.01 -0.005,0.0234 0,0.0334 0.01409,0.0282 0.05273,0.0386 0.06682,0.0668 0.005,0.01 -0.005,0.0234 0,0.0334 0.01409,0.0282 0.05273,0.0386 0.06682,0.0668 0.005,0.01 -0.0079,0.0255 0,0.0334 0.0079,0.008 0.02553,-0.008 0.03341,0 0.06912,0.0691 -0.105631,-0.003 0.03341,0.0668 0.01,0.005 0.02553,-0.008 0.03341,0 0.0079,0.008 -0.0079,0.0255 0,0.0334 0.0079,0.008 0.02554,-0.008 0.03341,0 0.06912,0.0691 -0.105631,-0.003 0.03341,0.0668 0.01,0.005 0.02553,-0.008 0.03341,0 0.0079,0.008 -0.005,0.0234 0,0.0334 0.06952,0.13904 -0.0023,-0.0357 0.06682,0.0334 0.0079,0.008 -0.005,0.0234 0,0.0334 0.03693,0.0739 0.02074,0.0104 0.06682,0.0334 0.06151,0.0308 0.0053,0.0695 0.06682,0.10023 0.01,0.005 0.02553,-0.008 0.03341,0 0.0079,0.008 -0.0079,0.0255 0,0.0334 0.0079,0.008 0.02553,-0.008 0.03341,0 0.0079,0.008 -0.0079,0.0255 0,0.0334 0.0079,0.008 0.02345,-0.005 0.03341,0 0.01409,0.007 0.01932,0.0264 0.03341,0.0334 0.01,0.005 0.02553,-0.008 0.03341,0 0.0079,0.008 -0.0079,0.0255 0,0.0334 0.0079,0.008 0.02553,-0.008 0.03341,0 0.0079,0.008 -0.0079,0.0255 0,0.0334 0.0079,0.008 0.02554,-0.008 0.03341,0 0.0079,0.008 -0.0079,0.0255 0,0.0334 0.0079,0.008 0.02345,-0.005 0.03341,0 0.02817,0.0141 0.03864,0.0527 0.06682,0.0668 0.01992,0.01 0.05107,-0.0158 0.06682,0 0.0079,0.008 -0.005,0.0234 0,0.0334 0.03693,0.0739 0.02074,0.0104 0.06682,0.0334 0.01409,0.007 0.01932,0.0264 0.03341,0.0334 0.01,0.005 0.02553,-0.008 0.03341,0 0.0079,0.008 -0.0079,0.0255 0,0.0334 0.01575,0.0158 0.0469,-0.01 0.06682,0 0.139039,0.0695 -0.03572,-0.002 0.03341,0.0668 0.01575,0.0158 0.0469,-0.01 0.06682,0 0.01409,0.007 0.01932,0.0264 0.03341,0.0334 0.01,0.005 0.02345,-0.005 0.03341,0 0.01409,0.007 0.01932,0.0264 0.03341,0.0334 0.01325,0.007 0.0934,-0.007 0.100226,0 0.0079,0.008 -0.0079,0.0255 0,0.0334 0.008,0.008 0.125595,-0.008 0.133635,0 0.0079,0.008 -0.0079,0.0255 0,0.0334 0.01575,0.0157 0.0469,-0.01 0.06682,0 0.01409,0.007 0.01932,0.0264 0.03341,0.0334 0.01017,0.005 0.08518,0 0.100226,0 0.07795,0 0.155907,0 0.233861,0 0.122498,0 0.244997,0 0.367495,0 0.02324,0 0.154962,0.006 0.167044,0 0.01409,-0.007 0.01932,-0.0264 0.03341,-0.0334 0.01,-0.005 0.02227,0 0.03341,0 0.02227,0 0.04521,0.005 0.06682,0 0.02416,-0.006 0.04319,-0.0255 0.06682,-0.0334 0.0355,-0.0118 0.09813,0.0118 0.133635,0 0.02362,-0.008 0.04319,-0.0255 0.06682,-0.0334 0.02298,-0.008 0.08051,0.01 0.100226,0 0.01409,-0.007 0.01932,-0.0264 0.03341,-0.0334 0.01,-0.005 0.02284,0.004 0.03341,0 0.02363,-0.008 0.04266,-0.0274 0.06682,-0.0334 0.01628,-0.004 0.115969,0.009 0.133635,0 0.02817,-0.0141 0.03864,-0.0527 0.06682,-0.0668 0.01,-0.005 0.02284,0.004 0.03341,0 0.02362,-0.008 0.04266,-0.0274 0.06682,-0.0334 0.02161,-0.005 0.04569,0.007 0.06682,0 0.01494,-0.005 0.01932,-0.0264 0.03341,-0.0334 0.01,-0.005 0.02345,0.005 0.03341,0 0.01409,-0.007 0.01932,-0.0264 0.03341,-0.0334 0.01,-0.005 0.02345,0.005 0.03341,0 0.01409,-0.007 0.01932,-0.0264 0.03341,-0.0334 0.03565,-0.0178 0.03117,0.0178 0.06682,0 0.02817,-0.0141 0.03865,-0.0527 0.06682,-0.0668 0.01992,-0.01 0.05107,0.0158 0.06682,0 0.0079,-0.008 0,-0.0223 0,-0.0334 0.02227,-0.0111 0.04319,-0.0255 0.06682,-0.0334 0.01056,-0.004 0.02345,0.005 0.03341,0 0.01409,-0.007 0.01847,-0.0284 0.03341,-0.0334 0.02113,-0.007 0.04569,0.007 0.06682,0 0.02988,-0.01 0.03694,-0.0569 0.06682,-0.0668 0.160362,-0.0534 0.02561,0.049 0.06682,-0.0334 0.03693,-0.0739 0.02073,-0.0104 0.06682,-0.0334 0.02817,-0.0141 0.03864,-0.0527 0.06682,-0.0668 0.01,-0.005 0.02554,0.008 0.03341,0 0.01575,-0.0157 -0.01575,-0.0511 0,-0.0668 0.01575,-0.0158 0.05107,0.0157 0.06682,0 0.06912,-0.0691 -0.10563,0.003 0.03341,-0.0668 0.01,-0.005 0.02554,0.008 0.03341,0 0.01575,-0.0158 -0.01575,-0.0511 0,-0.0668 0.0079,-0.008 0.02554,0.008 0.03341,0 0.0079,-0.008 -0.0079,-0.0255 0,-0.0334 0.0079,-0.008 0.02553,0.008 0.03341,0 0.01575,-0.0157 -0.01575,-0.0511 0,-0.0668 0.0079,-0.008 0.02554,0.008 0.03341,0 0.0068,-0.007 -0.0066,-0.087 0,-0.10023 0.007,-0.0141 0.02637,-0.0193 0.03341,-0.0334 0.0051,-0.0102 0,-0.0852 0,-0.10022 0,-0.078 0,-0.15591 0,-0.23387 0,-0.008 -0.0011,-0.0992 0,-0.10022 0.0079,-0.008 0.02553,0.008 0.03341,0 0.0079,-0.008 0,-0.0223 0,-0.0334 0,-0.0111 0,-0.0223 0,-0.0334 0,-0.0668 0,-0.13363 0,-0.20045 0,-0.0111 -0.0079,-0.0255 0,-0.0334 0.0079,-0.008 0.02554,0.008 0.03341,0 0.0079,-0.008 0,-0.0223 0,-0.0334 0,-0.0111 0,-0.0223 0,-0.0334 0,-0.14477 0,-0.28954 0,-0.43431 0,-0.0557 0,-0.11136 0,-0.16704 0,-0.0111 0.0079,-0.0255 0,-0.0334 -0.0079,-0.008 -0.02554,0.008 -0.03341,0 -0.01671,-0.0167 0.0167,-0.0835 0,-0.10023 -0.0079,-0.008 -0.02553,0.008 -0.03341,0 -0.0167,-0.0167 0.0167,-0.0835 0,-0.10022 -0.0079,-0.008 -0.02554,0.008 -0.03341,0 -0.0079,-0.008 0.005,-0.0235 0,-0.0334 -0.007,-0.0141 -0.02637,-0.0193 -0.03341,-0.0334 -0.005,-0.01 0,-0.0223 0,-0.0334 0,-0.0111 0,-0.0223 0,-0.0334 0,-0.0668 0,-0.13363 0,-0.20045 0,-0.0111 0,-0.0223 0,-0.0334 0,-0.0111 0.0079,-0.0255 0,-0.0334 -0.0079,-0.008 -0.02553,0.008 -0.03341,0 -0.0079,-0.008 0,-0.0223 0,-0.0334 0,-0.0668 0,-0.13363 0,-0.20045 0,-0.0111 -0.005,-0.0235 0,-0.0334 0.007,-0.0141 0.02636,-0.0193 0.03341,-0.0334 0.0091,-0.0181 -0.0091,-0.12449 0,-0.13363 0.0079,-0.008 0.03341,-0.0111 0.03341,0 0,0.0111 -0.03341,-0.0111 -0.03341,0 0,0.0157 0.02227,0.0223 0.03341,0.0334 0.01114,0.0111 0.01932,0.0264 0.03341,0.0334 0.01,0.005 0.02553,-0.008 0.03341,0 0.0079,0.008 -0.0079,0.0255 0,0.0334 0.06912,0.0691 -0.0027,-0.10563 0.06682,0.0334 0.005,0.01 -0.0079,0.0255 0,0.0334 0.0079,0.008 0.02554,-0.008 0.03341,0 0.0079,0.008 -0.0079,0.0255 0,0.0334 0.0079,0.008 0.02554,-0.008 0.03341,0 0.0079,0.008 -0.005,0.0234 0,0.0334 0.01409,0.0282 0.05273,0.0386 0.06682,0.0668 0.01,0.0199 -0.01575,0.0511 0,0.0668 0.0079,0.008 0.02553,-0.008 0.03341,0 0.0079,0.008 -0.0079,0.0255 0,0.0334 0.0079,0.008 0.02554,-0.008 0.03341,0 0.0079,0.008 0,0.0223 0,0.0334 0,0.0223 -0.01,0.0469 0,0.0668 0.005,0.01 0.02345,-0.005 0.03341,0 0.07387,0.0369 0.01037,0.0207 0.03341,0.0668 0.01409,0.0282 0.05273,0.0386 0.06682,0.0668 0.005,0.01 -0.0035,0.0229 0,0.0334 0.0079,0.0236 0.02554,0.0432 0.03341,0.0668 0.0035,0.0106 -0.005,0.0235 0,0.0334 0.01776,0.0355 0.04906,0.0313 0.06682,0.0668 0.01,0.0199 -0.01575,0.0511 0,0.0668 0.0079,0.008 0.02554,-0.008 0.03341,0 0.0079,0.008 -0.0079,0.0255 0,0.0334 0.0079,0.008 0.02554,-0.008 0.03341,0 0.0227,0.0227 -0.03416,0.0664 0.03341,0.10023 0.01,0.005 0.02554,-0.008 0.03341,0 0.01575,0.0158 -0.01,0.0469 0,0.0668 0.007,0.0141 0.02636,0.0193 0.03341,0.0334 0.005,0.01 0,0.0223 0,0.0334 0.01114,0.0111 0.02637,0.0193 0.03341,0.0334 0.01,0.0199 -0.01,0.0469 0,0.0668 0.007,0.0141 0.01932,0.0264 0.03341,0.0334 0.01,0.005 0.02843,-0.01 0.03341,0 0.02988,0.0263 -0.01494,0.0703 0,0.10022 0.007,0.0141 0.02637,0.0193 0.03341,0.0334 0.005,0.01 -0.0079,0.0255 0,0.0334 0.0079,0.008 0.02553,-0.008 0.03341,0 0.01575,0.0158 -0.01575,0.0511 0,0.0668 0.0079,0.008 0.02554,-0.008 0.03341,0 0.01575,0.0158 -0.01,0.0469 0,0.0668 0.007,0.0141 0.02637,0.0193 0.03341,0.0334 0.005,0.01 -0.0079,0.0255 0,0.0334 0.0079,0.008 0.02554,-0.008 0.03341,0 0.01575,0.0158 -0.007,0.0457 0,0.0668 0.0079,0.0236 0.0158,0.0492 0.03341,0.0668 0.08909,0 -0.01114,-0.0111 0.03341,0.0334 0.0079,0.008 0.02843,-0.01 0.03341,0 0.01,0.0199 -0.007,0.0457 0,0.0668 0.005,0.0149 0.02637,0.0193 0.03341,0.0334 0.005,0.01 -0.0079,0.0255 0,0.0334 0.0079,0.008 0.02553,-0.008 0.03341,0 0.0079,0.008 -0.005,0.0235 0,0.0334 0.007,0.0141 0.02637,0.0193 0.03341,0.0334 0.01,0.0199 -0.01575,0.0511 0,0.0668 0.06912,0.0691 -0.0027,-0.10563 0.06682,0.0334 0.01,0.0199 -0.01,0.0469 0,0.0668 0.06952,0.13904 -0.0023,-0.0357 0.06682,0.0334 0.0079,0.008 -0.0079,0.0255 0,0.0334 0.0079,0.008 0.02554,-0.008 0.03341,0 0.01575,0.0158 -0.01,0.0469 0,0.0668 0.01776,0.0355 0.04905,0.0313 0.06682,0.0668 0.01,0.0199 -0.01575,0.0511 0,0.0668 0.01575,0.0157 0.05107,-0.0158 0.06682,0 0.01575,0.0157 -0.01575,0.0511 0,0.0668 0.0079,0.008 0.02554,-0.008 0.03341,0 0.0079,0.008 -0.0079,0.0255 0,0.0334 0.0079,0.008 0.02553,-0.008 0.03341,0 0.0079,0.008 -0.0079,0.0255 0,0.0334 0.0079,0.008 0.02554,-0.008 0.03341,0 0.0079,0.008 -0.005,0.0234 0,0.0334 0.007,0.0141 0.02637,0.0193 0.03341,0.0334 0.005,0.01 -0.0079,0.0255 0,0.0334 0.02228,0.0223 0.04454,-0.0223 0.06682,0 0.01575,0.0157 -0.01575,0.0511 0,0.0668 0.0079,0.008 0.02345,-0.005 0.03341,0 0.139039,0.0695 -0.03571,-0.002 0.03341,0.0668 0.0079,0.008 0.02554,-0.008 0.03341,0 0.06912,0.0691 -0.10563,-0.003 0.03341,0.0668 0.01,0.005 0.02554,-0.008 0.03341,0 0.01575,0.0158 -0.01575,0.0511 0,0.0668 0.02228,0.0223 0.04454,-0.0223 0.06682,0 0.01575,0.0157 -0.01575,0.0511 0,0.0668 0.0079,0.008 0.02554,-0.008 0.03341,0 0.0079,0.008 -0.0079,0.0255 0,0.0334 0.0079,0.008 0.02553,-0.008 0.03341,0 0.0079,0.008 -0.0079,0.0255 0,0.0334 0.0079,0.008 0.02345,-0.005 0.03341,0 0.01409,0.007 0.01932,0.0264 0.03341,0.0334 0.01,0.005 0.02345,-0.005 0.03341,0 0.139038,0.0695 -0.03571,-0.002 0.03341,0.0668 0.0079,0.008 0.02553,-0.008 0.03341,0 0.0079,0.008 -0.0079,0.0255 0,0.0334 0.0079,0.008 0.02227,0 0.03341,0 0,0.0111 -0.0079,0.0255 0,0.0334 0.0079,0.008 0.02554,-0.008 0.03341,0 0.01575,0.0157 -0.01575,0.0511 0,0.0668 0.01575,0.0157 0.05107,-0.0158 0.06682,0 0.0079,0.008 -0.0079,0.0255 0,0.0334 0.01575,0.0157 0.05107,-0.0158 0.06682,0 0.0079,0.008 -0.0079,0.0255 0,0.0334 0.0068,0.007 0.08698,-0.007 0.100226,0 0.01409,0.007 0.01932,0.0264 0.03341,0.0334 0.01,0.005 0.02345,-0.005 0.03341,0 0.01409,0.007 0.01932,0.0264 0.03341,0.0334 0.02108,0.0105 0.145967,-0.0105 0.167044,0 0.01409,0.007 0.01932,0.0264 0.03341,0.0334 0.02308,0.0115 0.155317,-0.0117 0.167044,0 0.0079,0.008 -0.0079,0.0255 0,0.0334 0.0079,0.008 0.02227,0 0.03341,0 0.05568,0 0.111362,0 0.167043,0 0.01114,0 0.02553,-0.008 0.03341,0 0.0079,0.008 -0.0079,0.0255 0,0.0334 0.0011,10e-4 0.09212,0 0.100226,0"
       id="path3874"
       inkscape:connector-curvature="0" />
    <path
       style="fill:none;stroke:#000000;stroke-width:0.26458332px;stroke-linecap:butt;stroke-linejoin:miter;stroke-opacity:1"
       d="m 29.098933,291.18692 c -0.03341,-0.0446 -0.06085,-0.0943 -0.100226,-0.13364 -0.01575,-0.0157 -0.0469,0.01 -0.06682,0 -0.139038,-0.0695 0.03572,0.002 -0.03341,-0.0668 -0.0079,-0.008 -0.02553,0.008 -0.03341,0 -0.0079,-0.008 0.0079,-0.0255 0,-0.0334 -0.0079,-0.008 -0.02345,0.005 -0.03341,0 -0.01409,-0.007 -0.01932,-0.0264 -0.03341,-0.0334 -0.01992,-0.01 -0.05107,0.0157 -0.06682,0 -0.0079,-0.008 0.0079,-0.0255 0,-0.0334 -0.0079,-0.008 -0.02345,0.005 -0.03341,0 -0.01409,-0.007 -0.01932,-0.0264 -0.03341,-0.0334 -0.01992,-0.01 -0.05107,0.0157 -0.06682,0 -0.06912,-0.0691 0.10563,0.003 -0.03341,-0.0668 -0.02673,-0.0134 -0.0735,0.0134 -0.100226,0 -0.01409,-0.007 -0.01932,-0.0264 -0.03341,-0.0334 -0.01,-0.005 -0.02345,0.005 -0.03341,0 -0.01409,-0.007 -0.01932,-0.0264 -0.03341,-0.0334 -0.01992,-0.01 -0.05107,0.0157 -0.06682,0 -0.0079,-0.008 0.0079,-0.0255 0,-0.0334 -0.01034,-0.0104 -0.156698,0.0103 -0.167043,0 -0.0079,-0.008 0.01,-0.0284 0,-0.0334 -0.01992,-0.01 -0.04569,0.007 -0.06682,0 -0.01494,-0.005 -0.01932,-0.0264 -0.03341,-0.0334 -0.0086,-0.004 -0.176772,0 -0.200452,0 -0.01114,0 -0.02345,0.005 -0.03341,0 -0.01409,-0.007 -0.01932,-0.0264 -0.03341,-0.0334 -0.01,-0.005 -0.02345,0.005 -0.03341,0 -0.01409,-0.007 -0.01932,-0.0264 -0.03341,-0.0334 -0.01,-0.005 -0.02227,0 -0.03341,0 -0.01114,0 -0.02227,0 -0.03341,0 -0.05568,0 -0.111363,0 -0.167044,0 -0.03341,0 -0.06853,0.0106 -0.100226,0 -0.01494,-0.005 -0.01932,-0.0264 -0.03341,-0.0334 -0.01,-0.005 -0.02227,0 -0.03341,0 -0.01114,0 -0.02227,0 -0.03341,0 -0.06682,0 -0.133635,0 -0.200452,0 -0.100226,0 -0.200452,0 -0.300678,0 -0.01747,0 -0.124851,-0.004 -0.133635,0 -0.01409,0.007 -0.01932,0.0264 -0.03341,0.0334 -0.01218,0.006 -0.147793,0 -0.167043,0 -0.0081,0 -0.09915,-10e-4 -0.100226,0 -0.0079,0.008 0.0079,0.0255 0,0.0334 -0.0068,0.007 -0.08698,-0.007 -0.100226,0 -0.01409,0.007 -0.01932,0.0264 -0.03341,0.0334 -0.02673,0.0134 -0.0735,-0.0134 -0.100226,0 -0.01409,0.007 -0.01847,0.0284 -0.03341,0.0334 -0.02113,0.007 -0.0469,-0.01 -0.06682,0 -0.01,0.005 0.0079,0.0255 0,0.0334 -0.0167,0.0167 -0.08352,-0.0167 -0.100226,0 -0.0079,0.008 0.0079,0.0255 0,0.0334 -0.01575,0.0157 -0.0469,-0.01 -0.06682,0 -0.01409,0.007 -0.01932,0.0264 -0.03341,0.0334 -0.01325,0.007 -0.0934,-0.007 -0.100227,0 -0.0079,0.008 0.0079,0.0255 0,0.0334 -0.01575,0.0158 -0.04569,-0.007 -0.06682,0 -0.02227,0.0111 -0.04454,0.0223 -0.06682,0.0334 0,0.0111 0.0079,0.0255 0,0.0334 -0.0167,0.0167 -0.08352,-0.0167 -0.100226,0 -0.0079,0.008 0.0079,0.0255 0,0.0334 -0.0079,0.008 -0.02345,-0.005 -0.03341,0 -0.01409,0.007 -0.01932,0.0264 -0.03341,0.0334 -0.01,0.005 -0.02553,-0.008 -0.03341,0 -0.0079,0.008 0.0079,0.0255 0,0.0334 -0.0079,0.008 -0.02345,-0.005 -0.03341,0 -0.01409,0.007 -0.01932,0.0264 -0.03341,0.0334 -0.01,0.005 -0.02345,-0.005 -0.03341,0 -0.02817,0.0141 -0.03864,0.0527 -0.06682,0.0668 -0.01,0.005 -0.02345,-0.005 -0.03341,0 -0.139039,0.0695 0.03572,-0.002 -0.03341,0.0668 -0.0079,0.008 -0.02345,-0.005 -0.03341,0 -0.03288,0.0164 -0.10076,0.1172 -0.133635,0.13364 -0.01,0.005 -0.02553,-0.008 -0.03341,0 -0.0079,0.008 0.0079,0.0255 0,0.0334 -0.0079,0.008 -0.02554,-0.008 -0.03341,0 -0.06912,0.0691 0.10563,-0.003 -0.03341,0.0668 -0.01,0.005 -0.02553,-0.008 -0.03341,0 -0.01575,0.0158 0.01575,0.0511 0,0.0668 -0.0079,0.008 -0.02345,-0.005 -0.03341,0 -0.07387,0.0369 -0.01037,0.0207 -0.03341,0.0668 -0.02004,0.0401 -0.08018,0.0601 -0.100226,0.10022 -0.01,0.0199 0.01575,0.0511 0,0.0668 -0.0079,0.008 -0.02554,-0.008 -0.03341,0 -0.102544,0.10254 0.01952,0.0278 -0.03341,0.13364 -0.005,0.01 -0.02553,-0.008 -0.03341,0 -0.0079,0.008 0.005,0.0234 0,0.0334 -0.007,0.0141 -0.02637,0.0193 -0.03341,0.0334 -0.01,0.0199 0.01,0.0469 0,0.0668 -0.007,0.0141 -0.02637,0.0193 -0.03341,0.0334 -0.0051,0.0102 0,0.0852 0,0.10022 0,0.0668 0,0.13364 0,0.20046 0,0.0158 -0.0015,0.16553 0,0.16704 0.0079,0.008 0.02843,-0.01 0.03341,0 0.0061,0.0122 -0.0065,0.16054 0,0.16704 0.0079,0.008 0.02843,-0.01 0.03341,0 0.01,0.0199 -0.007,0.0457 0,0.0668 0.005,0.0149 0.02637,0.0193 0.03341,0.0334 0.0066,0.0133 -0.0068,0.0934 0,0.10023 0.0079,0.008 0.02553,-0.008 0.03341,0 0.0079,0.008 -0.005,0.0234 0,0.0334 0.007,0.0141 0.02637,0.0193 0.03341,0.0334 0.01,0.0199 -0.01575,0.0511 0,0.0668 0.0079,0.008 0.02553,-0.008 0.03341,0 0.01575,0.0157 -0.01,0.0469 0,0.0668 0.01409,0.0282 0.05273,0.0386 0.06682,0.0668 0.005,0.01 -0.005,0.0234 0,0.0334 0.01409,0.0282 0.05273,0.0386 0.06682,0.0668 0.005,0.01 -0.005,0.0234 0,0.0334 0.01409,0.0282 0.05273,0.0386 0.06682,0.0668 0.005,0.01 -0.0079,0.0255 0,0.0334 0.0079,0.008 0.02553,-0.008 0.03341,0 0.06912,0.0691 -0.105631,-0.003 0.03341,0.0668 0.01,0.005 0.02553,-0.008 0.03341,0 0.0079,0.008 -0.0079,0.0255 0,0.0334 0.0079,0.008 0.02554,-0.008 0.03341,0 0.06912,0.0691 -0.105631,-0.003 0.03341,0.0668 0.01,0.005 0.02553,-0.008 0.03341,0 0.0079,0.008 -0.005,0.0234 0,0.0334 0.06952,0.13904 -0.0023,-0.0357 0.06682,0.0334 0.0079,0.008 -0.005,0.0234 0,0.0334 0.03693,0.0739 0.02074,0.0104 0.06682,0.0334 0.06151,0.0308 0.0053,0.0695 0.06682,0.10023 0.01,0.005 0.02553,-0.008 0.03341,0 0.0079,0.008 -0.0079,0.0255 0,0.0334 0.0079,0.008 0.02553,-0.008 0.03341,0 0.0079,0.008 -0.0079,0.0255 0,0.0334 0.0079,0.008 0.02345,-0.005 0.03341,0 0.01409,0.007 0.01932,0.0264 0.03341,0.0334 0.01,0.005 0.02553,-0.008 0.03341,0 0.0079,0.008 -0.0079,0.0255 0,0.0334 0.0079,0.008 0.02553,-0.008 0.03341,0 0.0079,0.008 -0.0079,0.0255 0,0.0334 0.0079,0.008 0.02554,-0.008 0.03341,0 0.0079,0.008 -0.0079,0.0255 0,0.0334 0.0079,0.008 0.02345,-0.005 0.03341,0 0.02817,0.0141 0.03864,0.0527 0.06682,0.0668 0.01992,0.01 0.05107,-0.0158 0.06682,0 0.0079,0.008 -0.005,0.0234 0,0.0334 0.03693,0.0739 0.02074,0.0104 0.06682,0.0334 0.01409,0.007 0.01932,0.0264 0.03341,0.0334 0.01,0.005 0.02553,-0.008 0.03341,0 0.0079,0.008 -0.0079,0.0255 0,0.0334 0.01575,0.0158 0.0469,-0.01 0.06682,0 0.139039,0.0695 -0.03572,-0.002 0.03341,0.0668 0.01575,0.0158 0.0469,-0.01 0.06682,0 0.01409,0.007 0.01932,0.0264 0.03341,0.0334 0.01,0.005 0.02345,-0.005 0.03341,0 0.01409,0.007 0.01932,0.0264 0.03341,0.0334 0.01325,0.007 0.0934,-0.007 0.100226,0 0.0079,0.008 -0.0079,0.0255 0,0.0334 0.008,0.008 0.125595,-0.008 0.133635,0 0.0079,0.008 -0.0079,0.0255 0,0.0334 0.01575,0.0157 0.0469,-0.01 0.06682,0 0.01409,0.007 0.01932,0.0264 0.03341,0.0334 0.01017,0.005 0.08518,0 0.100226,0 0.07795,0 0.155907,0 0.233861,0 0.122498,0 0.244997,0 0.367495,0 0.02324,0 0.154962,0.006 0.167044,0 0.01409,-0.007 0.01932,-0.0264 0.03341,-0.0334 0.01,-0.005 0.02227,0 0.03341,0 0.02227,0 0.04521,0.005 0.06682,0 0.02416,-0.006 0.04319,-0.0255 0.06682,-0.0334 0.0355,-0.0118 0.09813,0.0118 0.133635,0 0.02362,-0.008 0.04319,-0.0255 0.06682,-0.0334 0.02298,-0.008 0.08051,0.01 0.100226,0 0.01409,-0.007 0.01932,-0.0264 0.03341,-0.0334 0.01,-0.005 0.02284,0.004 0.03341,0 0.02363,-0.008 0.04266,-0.0274 0.06682,-0.0334 0.01628,-0.004 0.115969,0.009 0.133635,0 0.02817,-0.0141 0.03864,-0.0527 0.06682,-0.0668 0.01,-0.005 0.02284,0.004 0.03341,0 0.02362,-0.008 0.04266,-0.0274 0.06682,-0.0334 0.02161,-0.005 0.04569,0.007 0.06682,0 0.01494,-0.005 0.01932,-0.0264 0.03341,-0.0334 0.01,-0.005 0.02345,0.005 0.03341,0 0.01409,-0.007 0.01932,-0.0264 0.03341,-0.0334 0.01,-0.005 0.02345,0.005 0.03341,0 0.01409,-0.007 0.01932,-0.0264 0.03341,-0.0334 0.03565,-0.0178 0.03117,0.0178 0.06682,0 0.02817,-0.0141 0.03865,-0.0527 0.06682,-0.0668 0.01992,-0.01 0.05107,0.0158 0.06682,0 0.0079,-0.008 0,-0.0223 0,-0.0334 0.02227,-0.0111 0.04319,-0.0255 0.06682,-0.0334 0.01056,-0.004 0.02345,0.005 0.03341,0 0.01409,-0.007 0.01847,-0.0284 0.03341,-0.0334 0.02113,-0.007 0.04569,0.007 0.06682,0 0.02988,-0.01 0.03694,-0.0569 0.06682,-0.0668 0.160362,-0.0534 0.02561,0.049 0.06682,-0.0334 0.03693,-0.0739 0.02073,-0.0104 0.06682,-0.0334 0.02817,-0.0141 0.03864,-0.0527 0.06682,-0.0668 0.01,-0.005 0.02554,0.008 0.03341,0 0.01575,-0.0157 -0.01575,-0.0511 0,-0.0668 0.01575,-0.0158 0.05107,0.0157 0.06682,0 0.06912,-0.0691 -0.10563,0.003 0.03341,-0.0668 0.01,-0.005 0.02554,0.008 0.03341,0 0.01575,-0.0158 -0.01575,-0.0511 0,-0.0668 0.0079,-0.008 0.02554,0.008 0.03341,0 0.0079,-0.008 -0.0079,-0.0255 0,-0.0334 0.0079,-0.008 0.02553,0.008 0.03341,0 0.01575,-0.0157 -0.01575,-0.0511 0,-0.0668 0.0079,-0.008 0.02554,0.008 0.03341,0 0.0068,-0.007 -0.0066,-0.087 0,-0.10023 0.007,-0.0141 0.02637,-0.0193 0.03341,-0.0334 0.0051,-0.0102 0,-0.0852 0,-0.10022 0,-0.078 0,-0.15591 0,-0.23387 0,-0.008 -0.0011,-0.0992 0,-0.10022 0.0079,-0.008 0.02553,0.008 0.03341,0 0.0079,-0.008 0,-0.0223 0,-0.0334 0,-0.0111 0,-0.0223 0,-0.0334 0,-0.0668 0,-0.13363 0,-0.20045 0,-0.0111 -0.0079,-0.0255 0,-0.0334 0.0079,-0.008 0.02554,0.008 0.03341,0 0.0079,-0.008 0,-0.0223 0,-0.0334 0,-0.0111 0,-0.0223 0,-0.0334 0,-0.14477 0,-0.28954 0,-0.43431 0,-0.0557 0,-0.11136 0,-0.16704 0,-0.0111 0.0079,-0.0255 0,-0.0334 -0.0079,-0.008 -0.02554,0.008 -0.03341,0 -0.01671,-0.0167 0.0167,-0.0835 0,-0.10023 -0.0079,-0.008 -0.02553,0.008 -0.03341,0 -0.0167,-0.0167 0.0167,-0.0835 0,-0.10022 -0.0079,-0.008 -0.02554,0.008 -0.03341,0 -0.0079,-0.008 0.005,-0.0235 0,-0.0334 -0.007,-0.0141 -0.02637,-0.0193 -0.03341,-0.0334 -0.005,-0.01 0,-0.0223 0,-0.0334 0,-0.0111 0,-0.0223 0,-0.0334 0,-0.0668 0,-0.13363 0,-0.20045 0,-0.0111 0,-0.0223 0,-0.0334 0,-0.0111 0.0079,-0.0255 0,-0.0334 -0.0079,-0.008 -0.02553,0.008 -0.03341,0 -0.0079,-0.008 0,-0.0223 0,-0.0334 0,-0.0668 0,-0.13363 0,-0.20045 0,-0.0111 -0.005,-0.0235 0,-0.0334 0.007,-0.0141 0.02636,-0.0193 0.03341,-0.0334 0.0091,-0.0181 -0.0091,-0.12449 0,-0.13363 0.0079,-0.008 0.03341,-0.0111 0.03341,0 0,0.0111 -0.03341,-0.0111 -0.03341,0 0,0.0157 0.02227,0.0223 0.03341,0.0334 0.01114,0.0111 0.01932,0.0264 0.03341,0.0334 0.01,0.005 0.02553,-0.008 0.03341,0 0.0079,0.008 -0.0079,0.0255 0,0.0334 0.06912,0.0691 -0.0027,-0.10563 0.06682,0.0334 0.005,0.01 -0.0079,0.0255 0,0.0334 0.0079,0.008 0.02554,-0.008 0.03341,0 0.0079,0.008 -0.0079,0.0255 0,0.0334 0.0079,0.008 0.02554,-0.008 0.03341,0 0.0079,0.008 -0.005,0.0234 0,0.0334 0.01409,0.0282 0.05273,0.0386 0.06682,0.0668 0.01,0.0199 -0.01575,0.0511 0,0.0668 0.0079,0.008 0.02553,-0.008 0.03341,0 0.0079,0.008 -0.0079,0.0255 0,0.0334 0.0079,0.008 0.02554,-0.008 0.03341,0 0.0079,0.008 0,0.0223 0,0.0334 0,0.0223 -0.01,0.0469 0,0.0668 0.005,0.01 0.02345,-0.005 0.03341,0 0.07387,0.0369 0.01037,0.0207 0.03341,0.0668 0.01409,0.0282 0.05273,0.0386 0.06682,0.0668 0.005,0.01 -0.0035,0.0229 0,0.0334 0.0079,0.0236 0.02554,0.0432 0.03341,0.0668 0.0035,0.0106 -0.005,0.0235 0,0.0334 0.01776,0.0355 0.04906,0.0313 0.06682,0.0668 0.01,0.0199 -0.01575,0.0511 0,0.0668 0.0079,0.008 0.02554,-0.008 0.03341,0 0.0079,0.008 -0.0079,0.0255 0,0.0334 0.0079,0.008 0.02554,-0.008 0.03341,0 0.0227,0.0227 -0.03416,0.0664 0.03341,0.10023 0.01,0.005 0.02554,-0.008 0.03341,0 0.01575,0.0158 -0.01,0.0469 0,0.0668 0.007,0.0141 0.02636,0.0193 0.03341,0.0334 0.005,0.01 0,0.0223 0,0.0334 0.01114,0.0111 0.02637,0.0193 0.03341,0.0334 0.01,0.0199 -0.01,0.0469 0,0.0668 0.007,0.0141 0.01932,0.0264 0.03341,0.0334 0.01,0.005 0.02843,-0.01 0.03341,0 0.02988,0.0263 -0.01494,0.0703 0,0.10022 0.007,0.0141 0.02637,0.0193 0.03341,0.0334 0.005,0.01 -0.0079,0.0255 0,0.0334 0.0079,0.008 0.02553,-0.008 0.03341,0 0.01575,0.0158 -0.01575,0.0511 0,0.0668 0.0079,0.008 0.02554,-0.008 0.03341,0 0.01575,0.0158 -0.01,0.0469 0,0.0668 0.007,0.0141 0.02637,0.0193 0.03341,0.0334 0.005,0.01 -0.0079,0.0255 0,0.0334 0.0079,0.008 0.02554,-0.008 0.03341,0 0.01575,0.0158 -0.007,0.0457 0,0.0668 0.0079,0.0236 0.0158,0.0492 0.03341,0.0668 0.08909,0 -0.01114,-0.0111 0.03341,0.0334 0.0079,0.008 0.02843,-0.01 0.03341,0 0.01,0.0199 -0.007,0.0457 0,0.0668 0.005,0.0149 0.02637,0.0193 0.03341,0.0334 0.005,0.01 -0.0079,0.0255 0,0.0334 0.0079,0.008 0.02553,-0.008 0.03341,0 0.0079,0.008 -0.005,0.0235 0,0.0334 0.007,0.0141 0.02637,0.0193 0.03341,0.0334 0.01,0.0199 -0.01575,0.0511 0,0.0668 0.06912,0.0691 -0.0027,-0.10563 0.06682,0.0334 0.01,0.0199 -0.01,0.0469 0,0.0668 0.06952,0.13904 -0.0023,-0.0357 0.06682,0.0334 0.0079,0.008 -0.0079,0.0255 0,0.0334 0.0079,0.008 0.02554,-0.008 0.03341,0 0.01575,0.0158 -0.01,0.0469 0,0.0668 0.01776,0.0355 0.04905,0.0313 0.06682,0.0668 0.01,0.0199 -0.01575,0.0511 0,0.0668 0.01575,0.0157 0.05107,-0.0158 0.06682,0 0.01575,0.0157 -0.01575,0.0511 0,0.0668 0.0079,0.008 0.02554,-0.008 0.03341,0 0.0079,0.008 -0.0079,0.0255 0,0.0334 0.0079,0.008 0.02553,-0.008 0.03341,0 0.0079,0.008 -0.0079,0.0255 0,0.0334 0.0079,0.008 0.02554,-0.008 0.03341,0 0.0079,0.008 -0.005,0.0234 0,0.0334 0.007,0.0141 0.02637,0.0193 0.03341,0.0334 0.005,0.01 -0.0079,0.0255 0,0.0334 0.02228,0.0223 0.04454,-0.0223 0.06682,0 0.01575,0.0157 -0.01575,0.0511 0,0.0668 0.0079,0.008 0.02345,-0.005 0.03341,0 0.139039,0.0695 -0.03571,-0.002 0.03341,0.0668 0.0079,0.008 0.02554,-0.008 0.03341,0 0.06912,0.0691 -0.10563,-0.003 0.03341,0.0668 0.01,0.005 0.02554,-0.008 0.03341,0 0.01575,0.0158 -0.01575,0.0511 0,0.0668 0.02228,0.0223 0.04454,-0.0223 0.06682,0 0.01575,0.0157 -0.01575,0.0511 0,0.0668 0.0079,0.008 0.02554,-0.008 0.03341,0 0.0079,0.008 -0.0079,0.0255 0,0.0334 0.0079,0.008 0.02553,-0.008 0.03341,0 0.0079,0.008 -0.0079,0.0255 0,0.0334 0.0079,0.008 0.02345,-0.005 0.03341,0 0.01409,0.007 0.01932,0.0264 0.03341,0.0334 0.01,0.005 0.02345,-0.005 0.03341,0 0.139038,0.0695 -0.03571,-0.002 0.03341,0.0668 0.0079,0.008 0.02553,-0.008 0.03341,0 0.0079,0.008 -0.0079,0.0255 0,0.0334 0.0079,0.008 0.02227,0 0.03341,0 0,0.0111 -0.0079,0.0255 0,0.0334 0.0079,0.008 0.02554,-0.008 0.03341,0 0.01575,0.0157 -0.01575,0.0511 0,0.0668 0.01575,0.0157 0.05107,-0.0158 0.06682,0 0.0079,0.008 -0.0079,0.0255 0,0.0334 0.01575,0.0157 0.05107,-0.0158 0.06682,0 0.0079,0.008 -0.0079,0.0255 0,0.0334 0.0068,0.007 0.08698,-0.007 0.100226,0 0.01409,0.007 0.01932,0.0264 0.03341,0.0334 0.01,0.005 0.02345,-0.005 0.03341,0 0.01409,0.007 0.01932,0.0264 0.03341,0.0334 0.02108,0.0105 0.145967,-0.0105 0.167044,0 0.01409,0.007 0.01932,0.0264 0.03341,0.0334 0.02308,0.0115 0.155317,-0.0117 0.167044,0 0.0079,0.008 -0.0079,0.0255 0,0.0334 0.0079,0.008 0.02227,0 0.03341,0 0.05568,0 0.111362,0 0.167043,0 0.01114,0 0.02553,-0.008 0.03341,0 0.0079,0.008 -0.0079,0.0255 0,0.0334 0.0011,0.001 0.09212,0 0.100226,0"
       id="path3874-7"
       inkscape:connector-curvature="0" />
  </g>
</svg>
