<?xml version="1.0" encoding="UTF-8" standalone="no"?>
<!-- Created with Inkscape (http://www.inkscape.org/) -->

<svg
   xmlns:dc="http://purl.org/dc/elements/1.1/"
   xmlns:cc="http://creativecommons.org/ns#"
   xmlns:rdf="http://www.w3.org/1999/02/22-rdf-syntax-ns#"
   xmlns:svg="http://www.w3.org/2000/svg"
   xmlns="http://www.w3.org/2000/svg"
   xmlns:sodipodi="http://sodipodi.sourceforge.net/DTD/sodipodi-0.dtd"
   xmlns:inkscape="http://www.inkscape.org/namespaces/inkscape"
   width="64"
   height="64"
   viewBox="0 0 16.933333 16.933334"
   version="1.1"
   id="svg125"
   inkscape:version="0.92.1 r15371"
   sodipodi:docname="buy_airplane.svg">
  <defs
     id="defs119" />
  <sodipodi:namedview
     id="base"
     pagecolor="#ffffff"
     bordercolor="#666666"
     borderopacity="1.0"
     inkscape:pageopacity="0.0"
     inkscape:pageshadow="2"
     inkscape:zoom="8"
     inkscape:cx="30.981563"
     inkscape:cy="26.6703"
     inkscape:document-units="px"
     inkscape:current-layer="layer1"
     showgrid="false"
     units="px"
     inkscape:window-width="1920"
     inkscape:window-height="1053"
     inkscape:window-x="0"
     inkscape:window-y="27"
     inkscape:window-maximized="1"
     inkscape:snap-page="true" />
  <metadata
     id="metadata122">
    <rdf:RDF>
      <cc:Work
         rdf:about="">
        <dc:format>image/svg+xml</dc:format>
        <dc:type
           rdf:resource="http://purl.org/dc/dcmitype/StillImage" />
        <dc:title></dc:title>
      </cc:Work>
    </rdf:RDF>
  </metadata>
  <g
     inkscape:label="Ebene 1"
     inkscape:groupmode="layer"
     id="layer1"
     transform="translate(0,-280.06664)">
    <path
       style="fill:none;stroke:#000000;stroke-width:0.26458335px;stroke-linecap:butt;stroke-linejoin:miter;stroke-opacity:1"
       d="m 9.4257816,288.50024 c -0.0441,-0.0331 -0.08819,-0.0661 -0.132292,-0.0992 0,-0.011 0.0078,-0.0253 0,-0.0331 -0.0078,-0.008 -0.02528,0.008 -0.03307,0 -0.0078,-0.008 0.0078,-0.0253 0,-0.0331 -0.01559,-0.0156 -0.05055,0.0156 -0.06615,0 -0.06843,-0.0684 0.104568,0.003 -0.03307,-0.0661 -0.0099,-0.005 -0.02205,0 -0.03307,0 -0.01103,-0.011 -0.01913,-0.0261 -0.03307,-0.0331 -0.0099,-0.005 -0.02528,0.008 -0.03307,0 -0.0078,-0.008 0.0078,-0.0253 0,-0.0331 -0.01559,-0.0156 -0.04642,0.01 -0.06615,0 -0.01395,-0.007 -0.01913,-0.0261 -0.033073,-0.0331 -0.00986,-0.005 -0.025278,0.008 -0.033073,0 -0.00779,-0.008 0.00779,-0.0253 0,-0.0331 -0.015592,-0.0156 -0.050555,0.0156 -0.066146,0 -0.00779,-0.008 0.00779,-0.0253 0,-0.0331 -0.00779,-0.008 -0.023212,0.005 -0.033073,0 -0.027889,-0.0139 -0.036565,-0.0563 -0.066146,-0.0661 -0.020918,-0.007 -0.046425,0.01 -0.066146,0 -0.00986,-0.005 0.00779,-0.0253 0,-0.0331 -0.1290748,-0.12907 -0.017761,0.008 -0.099219,-0.0331 -0.013946,-0.007 -0.019127,-0.0261 -0.033073,-0.0331 -0.00986,-0.005 -0.025278,0.008 -0.033073,0 -0.00779,-0.008 0.00779,-0.0253 0,-0.0331 -0.00779,-0.008 -0.023212,0.005 -0.033073,0 -0.013946,-0.007 -0.019127,-0.0261 -0.033073,-0.0331 -0.00986,-0.005 -0.025278,0.008 -0.033073,0 -0.00779,-0.008 0.00986,-0.0281 0,-0.0331 -0.019722,-0.01 -0.044097,0 -0.066146,0 -0.011025,0 -0.025278,0.008 -0.033073,0 -0.00779,-0.008 0.00779,-0.0253 0,-0.0331 -0.00779,-0.008 -0.023212,0.005 -0.033073,0 -0.013946,-0.007 -0.019127,-0.0261 -0.033073,-0.0331 -0.026458,-0.0132 -0.07276,0.0132 -0.099219,0 -0.013946,-0.007 -0.019127,-0.0261 -0.033073,-0.0331 -0.00986,-0.005 -0.022048,0 -0.033073,0 -0.011025,-0.011 -0.019127,-0.0261 -0.033073,-0.0331 -0.020786,-0.0104 -0.1115047,0.0104 -0.1322917,0 -0.013946,-0.007 -0.018283,-0.0282 -0.033073,-0.0331 -0.1505574,0 -0.00188,0.0156 -0.099219,-0.0331 -0.00986,-0.005 -0.022048,0 -0.033073,0 -0.013912,0 -0.1885993,0.005 -0.1984375,0 -0.013946,-0.007 -0.019127,-0.0261 -0.033073,-0.0331 -0.026458,-0.0132 -0.07276,0.0132 -0.099219,0 -0.013944,-0.007 -0.019129,-0.0261 -0.033073,-0.0331 -0.00986,-0.005 -0.022048,0 -0.033073,0 -0.011025,0 -0.022048,0 -0.033073,0 -0.066146,0 -0.1322916,0 -0.1984375,0 -0.031149,0 -0.1465506,0.006 -0.1653646,0 -0.01479,-0.005 -0.019129,-0.0261 -0.033073,-0.0331 -0.00986,-0.005 -0.022048,0 -0.033073,0 -0.022048,0 -0.044097,0 -0.066146,0 -0.088194,0 -0.176389,0 -0.2645834,0 -0.022048,0 -0.044097,0 -0.066146,0 -0.011025,0 -0.022614,0.003 -0.033073,0 -0.023386,-0.008 -0.042231,-0.0271 -0.066146,-0.0331 -0.029982,-0.007 -0.1269447,0 -0.1653645,0 -0.1433161,0 -0.2866319,0 -0.429948,0 -0.1102431,0 -0.220486,0 -0.3307292,0 -0.023003,0 -0.1534043,-0.006 -0.1653645,0 -0.013944,0.007 -0.019129,0.0261 -0.033073,0.0331 -0.00986,0.005 -0.022048,0 -0.033073,0 -0.023442,0 -0.1898864,-0.004 -0.1984375,0 -0.013943,0.007 -0.019129,0.0261 -0.033073,0.0331 -0.026458,0.0132 -0.07276,-0.0132 -0.099219,0 -0.013943,0.007 -0.019129,0.0261 -0.033073,0.0331 -0.00986,0.005 -0.023212,-0.005 -0.033073,0 -0.013943,0.007 -0.019129,0.0261 -0.033073,0.0331 -0.026458,0.0132 -0.07276,-0.0132 -0.099219,0 -0.013943,0.007 -0.026101,0.0191 -0.033073,0.0331 -0.00493,0.01 0.00986,0.0282 0,0.0331 -0.020788,0.0104 -0.1115047,-0.0104 -0.1322916,0 -0.027889,0.0139 -0.038256,0.0522 -0.066146,0.0661 -0.00986,0.005 -0.022614,-0.003 -0.033073,0 -0.2395609,0.0799 0.052143,-0.01 -0.099219,0.0661 -0.019722,0.01 -0.046425,-0.01 -0.066146,0 -0.027889,0.0139 -0.038256,0.0522 -0.066146,0.0661 -0.00986,0.005 -0.022048,0 -0.033073,0 -0.022048,0.022 -0.040201,0.0489 -0.066146,0.0661 -0.018346,0.0122 -0.046425,-0.01 -0.066146,0 -0.071549,0.0358 0.0054,0.0304 -0.066146,0.0661 -0.097327,0.0487 0.043543,-0.0766 -0.066146,0.0331 -0.011025,0.011 -0.022048,0.0221 -0.033073,0.0331 -0.011025,0.011 -0.019129,0.0261 -0.033073,0.0331 -0.00986,0.005 -0.023212,-0.005 -0.033073,0 -0.027889,0.0139 -0.040201,0.0488 -0.066146,0.0661 -0.020511,0.0137 -0.048715,0.0156 -0.066146,0.0331 -0.00779,0.008 0.00493,0.0232 0,0.0331 -0.019844,0.0397 -0.079375,0.0595 -0.099219,0.0992 -0.00493,0.01 0.00779,0.0253 0,0.0331 -0.00779,0.008 -0.023212,-0.005 -0.033073,0 -0.013943,0.007 -0.022048,0.022 -0.033073,0.0331 -0.011025,0.011 -0.026101,0.0191 -0.033073,0.0331 -0.00493,0.01 0.00493,0.0232 0,0.0331 -0.00697,0.0139 -0.022048,0.022 -0.033073,0.0331 -0.011025,0.011 -0.022048,0.022 -0.033073,0.0331 -0.1096891,0.10969 0.015592,-0.0312 -0.033073,0.0661 -0.013943,0.0279 -0.052201,0.0383 -0.066146,0.0661 -0.017701,0.0354 0.028639,0.0706 -0.033073,0.1323 -0.00779,0.008 -0.025278,-0.008 -0.033073,0 -0.00779,0.008 0.00779,0.0253 0,0.0331 -0.017431,0.0174 -0.052472,0.0126 -0.066146,0.0331 -0.012202,0.0183 0.010983,0.11033 0,0.13229 -0.013943,0.0279 -0.052201,0.0383 -0.066146,0.0661 -0.00493,0.01 0,0.0221 0,0.0331 0,0.022 0.00697,0.0452 0,0.0661 -0.00493,0.0148 -0.026101,0.0191 -0.033073,0.0331 -0.00493,0.01 0.00493,0.0232 0,0.0331 -0.013944,0.0279 -0.056285,0.0366 -0.066146,0.0661 -0.00504,0.0151 0.00736,0.11758 0,0.13229 -0.013944,0.0279 -0.052201,0.0383 -0.066146,0.0661 -0.010742,0.0215 0.010491,0.14438 0,0.16536 -0.00697,0.014 -0.026101,0.0191 -0.033073,0.0331 -0.00493,0.01 0.00349,0.0226 0,0.0331 -0.00779,0.0234 -0.025278,0.0428 -0.033073,0.0661 -0.00697,0.0209 0.00986,0.0464 0,0.0661 -0.00697,0.014 -0.028143,0.0183 -0.033073,0.0331 -0.00913,0.0274 0.010517,0.14433 0,0.16537 -0.00697,0.0139 -0.026101,0.0191 -0.033073,0.0331 -0.00493,0.01 0,0.022 0,0.0331 0,0.022 0,0.0441 0,0.0661 0,0.028 0.00593,0.11451 0,0.13229 -0.00493,0.0148 -0.026101,0.0191 -0.033073,0.0331 -0.00493,0.01 0,0.022 0,0.0331 0,0.022 0,0.0441 0,0.0661 0,0.0368 0.00645,0.24524 0,0.26459 -0.00779,0.0234 -0.025278,0.0428 -0.033073,0.0661 -0.00349,0.0105 0,0.0221 0,0.0331 0,0.0221 0,0.0441 0,0.0661 0,0.0551 0,0.11024 0,0.16536 0,0.0185 -0.00505,0.15023 0,0.16537 0.00493,0.0148 0.028143,0.0183 0.033073,0.0331 0.00504,0.0151 -0.00736,0.11758 0,0.13229 0.00697,0.0139 0.028143,0.0183 0.033073,0.0331 0.00505,0.0151 0,0.1469 0,0.16536 0,0.011 -0.00349,0.0226 0,0.0331 0.00779,0.0234 0.027094,0.0422 0.033073,0.0661 0.00535,0.0214 -0.00697,0.0452 0,0.0662 0.00493,0.0148 0.028143,0.0183 0.033073,0.0331 0.013943,0.0418 -0.010695,0.0895 0,0.13229 0.00598,0.0239 0.027094,0.0422 0.033073,0.0661 0.00535,0.0214 -0.00697,0.0452 0,0.0661 0.00493,0.0148 0.026101,0.0191 0.033073,0.0331 0.00493,0.01 -0.00349,0.0226 0,0.0331 0.00779,0.0234 0.027094,0.0422 0.033073,0.0661 0.00802,0.0321 -0.010459,0.0678 0,0.0992 -0.019934,0.0599 0.053576,0.0615 0.066146,0.0992 0.00697,0.0209 -0.00697,0.0452 0,0.0661 0.00493,0.0148 0.028143,0.0183 0.033073,0.0331 0.00697,0.0209 -0.00986,0.0464 0,0.0661 0.013944,0.0279 0.04885,0.0402 0.066146,0.0661 0.00611,0.009 0,0.0221 0,0.0331 0,0.0221 -0.00697,0.0452 0,0.0661 0.00493,0.0148 0.024424,0.0201 0.033073,0.0331 0.013674,0.0205 0.019399,0.0456 0.033073,0.0661 0.00865,0.013 0.028143,0.0183 0.033073,0.0331 0.00697,0.0209 -0.00986,0.0464 0,0.0661 0.013943,0.0279 0.04885,0.0402 0.066146,0.0661 0.00611,0.009 -0.00493,0.0232 0,0.0331 0.00697,0.0139 0.024424,0.0201 0.033073,0.0331 0.013674,0.0205 0.019399,0.0456 0.033073,0.0661 0.00865,0.013 0.024424,0.0201 0.033073,0.0331 0.013674,0.0205 0.019399,0.0456 0.033073,0.0661 0.00865,0.013 0.024424,0.0201 0.033073,0.0331 0.013674,0.0205 0.019399,0.0456 0.033073,0.0661 0.00865,0.013 0.022048,0.022 0.033073,0.0331 0.011025,0.022 0.019399,0.0456 0.033073,0.0661 0.00865,0.013 0.024424,0.0201 0.033073,0.0331 0.013674,0.0205 0.019399,0.0456 0.033073,0.0661 0.028069,0.0421 0.1017275,0.0915 0.1322917,0.13229 0.01479,0.0197 0.019399,0.0456 0.033073,0.0662 0.028069,0.0421 0.1017275,0.0915 0.1322916,0.13229 0.01479,0.0197 0.019399,0.0456 0.033073,0.0661 0.00865,0.013 0.022048,0.022 0.033073,0.0331 0.011025,0.011 0.0201,0.0244 0.033073,0.0331 0.020511,0.0137 0.048715,0.0156 0.066146,0.0331 0.034862,0.0349 0.031284,0.0974 0.066146,0.1323 0.017431,0.0174 0.045635,0.0194 0.066146,0.0331 0.012973,0.009 0.022048,0.022 0.033073,0.0331 0.022048,0.022 0.047437,0.0412 0.066146,0.0661 0.01479,0.0197 0.015642,0.0487 0.033073,0.0661 0.017431,0.0174 0.045635,0.0194 0.066146,0.0331 0.012973,0.009 0.0201,0.0244 0.033073,0.0331 0.020511,0.0137 0.048715,0.0156 0.066146,0.0331 0.017431,0.0174 0.015642,0.0487 0.033073,0.0661 0.017431,0.0174 0.045635,0.0194 0.066146,0.0331 0.048666,0.0324 0.083626,0.0999 0.1322917,0.13229 0.020511,0.0137 0.048715,0.0156 0.066146,0.0331 0.017431,0.0174 0.015642,0.0487 0.033073,0.0661 0.017431,0.0174 0.045635,0.0194 0.066146,0.0331 0.012973,0.009 0.0201,0.0244 0.033073,0.0331 0.020511,0.0137 0.046425,0.0183 0.066146,0.0331 0.024945,0.0187 0.041201,0.0474 0.066146,0.0661 0.019722,0.0148 0.045635,0.0194 0.066146,0.0331 0.012973,0.009 0.0201,0.0244 0.033073,0.0331 0.02051,0.0137 0.048715,0.0156 0.066146,0.0331 0.017431,0.0174 0.012562,0.0525 0.033073,0.0661 0.018346,0.0122 0.046425,-0.01 0.066146,0 0.066146,0.0331 0.049609,0.0661 0.099219,0.0992 0.077238,0.0515 0.1873452,0.0808 0.2645834,0.13229 0.012973,0.009 0.022048,0.022 0.033073,0.0331 0.022048,0.011 0.045635,0.0194 0.066146,0.0331 0.012973,0.009 0.018283,0.0281 0.033073,0.0331 0.020918,0.007 0.0478,-0.0122 0.066146,0 0.02051,0.0137 0.012562,0.0525 0.033073,0.0661 0.018346,0.0122 0.044756,-0.005 0.066146,0 0.04783,0.012 0.08552,0.0505 0.1322917,0.0661 0.010459,0.003 0.022614,-0.003 0.033073,0 0.05986,-0.0199 0.06151,0.0536 0.099219,0.0661 0.020918,0.007 0.045229,-0.007 0.066146,0 0.01479,0.005 0.018283,0.0281 0.033073,0.0331 0.020918,0.007 0.044756,-0.005 0.066146,0 0.023916,0.006 0.04276,0.0253 0.066146,0.0331 0.020918,0.007 0.046425,-0.01 0.066146,0 0.013944,0.007 0.018283,0.0282 0.033073,0.0331 0.027392,0.009 0.144332,-0.0105 0.1653645,0 0.013944,0.007 0.018283,0.0281 0.033073,0.0331 0.049609,0.0165 0.1157552,-0.0165 0.1653646,0 0.01479,0.005 0.019129,0.0261 0.033073,0.0331 0.00986,0.005 0.022048,0 0.033073,0 0.034393,0 0.1724218,-0.006 0.1984375,0 0.023916,0.006 0.04276,0.0253 0.066146,0.0331 0.017899,0.006 0.1210247,0 0.1322917,0 0.099219,0 0.1984375,0 0.2976563,0 0.014893,0 0.089153,0.005 0.099219,0 0.013946,-0.007 0.019127,-0.0261 0.033073,-0.0331 0.019722,-0.01 0.046425,0.01 0.066146,0 0.013946,-0.007 0.019127,-0.0261 0.033073,-0.0331 0.019722,-0.01 0.046425,0.01 0.066146,0 0.013946,-0.007 0.019127,-0.0261 0.033073,-0.0331 0.026458,-0.0132 0.07276,0.0132 0.099219,0 0.00986,-0.005 -0.00779,-0.0253 0,-0.0331 0.00676,-0.007 0.086106,0.007 0.099219,0 0.02789,-0.0139 0.036565,-0.0563 0.066146,-0.0661 0.020918,-0.007 0.045229,0.007 0.066146,0 0.029581,-0.01 0.040201,-0.0489 0.066146,-0.0661 0.020511,-0.0137 0.048715,-0.0156 0.066146,-0.0331 0.00779,-0.008 -0.00986,-0.0281 0,-0.0331 0.019722,-0.01 0.046425,0.01 0.066146,0 0.00986,-0.005 -0.00493,-0.0232 0,-0.0331 0.00697,-0.0139 0.019127,-0.0261 0.033073,-0.0331 0.019722,-0.01 0.050555,0.0156 0.066146,0 0.017431,-0.0174 0.015642,-0.0487 0.033073,-0.0661 0.00779,-0.008 0.025278,0.008 0.033073,0 0.00779,-0.008 -0.00779,-0.0253 0,-0.0331 0.1290749,-0.12907 0.017761,0.008 0.099219,-0.0331 0.013946,-0.007 0.019127,-0.0261 0.033073,-0.0331 0.00986,-0.005 0.023212,0.005 0.033073,0 0.021066,-0.0105 0.1393773,-0.13938 0.1653653,-0.16537 0.01103,-0.011 0.01913,-0.0261 0.03307,-0.0331 0.0099,-0.005 0.02528,0.008 0.03307,0 0.01743,-0.0174 0.01564,-0.0487 0.03307,-0.0661 0.0078,-0.008 0.02528,0.008 0.03307,0 0.01743,-0.0174 0.0194,-0.0456 0.03307,-0.0661 0.0086,-0.013 0.02205,-0.022 0.03307,-0.0331 0.01103,-0.011 0.0201,-0.0244 0.03307,-0.0331 0.0732,-0.0488 0.07507,-0.0134 0.132292,-0.0992 0.0061,-0.009 -0.0049,-0.0232 0,-0.0331 0.007,-0.0139 0.02205,-0.022 0.03307,-0.0331 0.01103,-0.011 0.02205,-0.0221 0.03307,-0.0331 0.07583,-0.0758 -0.01395,0.0209 0.06614,-0.0992 0.0087,-0.013 0.0261,-0.0191 0.03307,-0.0331 0.0049,-0.01 -0.0078,-0.0253 0,-0.0331 0.01743,-0.0174 0.04564,-0.0194 0.06615,-0.0331 0.01297,-0.009 0.02205,-0.022 0.03307,-0.0331 0.01102,-0.011 0.02814,-0.0183 0.03307,-0.0331 0.0646,-0.1938 -0.09195,0.0589 0.06615,-0.0992 0.01559,-0.0156 -0.01559,-0.0505 0,-0.0661 0.01743,-0.0174 0.05247,-0.0126 0.06615,-0.0331 0.01223,-0.0183 -0.01223,-0.0478 0,-0.0661 0.01367,-0.0205 0.05247,-0.0126 0.06615,-0.0331 0.01223,-0.0183 -0.007,-0.0452 0,-0.0661 0.0049,-0.0148 0.0261,-0.0191 0.03307,-0.0331 0.0049,-0.01 -0.0049,-0.0232 0,-0.0331 0.07568,-0.15136 -0.01371,0.14034 0.06615,-0.0992 0.0035,-0.0105 -0.0049,-0.0232 0,-0.0331 0.01395,-0.0279 0.05629,-0.0366 0.06615,-0.0661 0.007,-0.0209 -0.007,-0.0452 0,-0.0661 0.0099,-0.0296 0.05628,-0.0366 0.06615,-0.0662 5e-5,-1.5e-4 -3.2e-5,-0.0992 0,-0.0992 0.01743,-0.0174 0.04871,-0.0156 0.06615,-0.0331 0.0109,-0.0109 -0.008,-0.10836 0,-0.13229 0.0099,-0.0296 0.0522,-0.0383 0.06615,-0.0661 0.0049,-0.01 0,-0.022 0,-0.0331 0,-0.022 -0.007,-0.0452 0,-0.0661 0.0099,-0.0296 0.0522,-0.0383 0.06615,-0.0661 0.0099,-0.0197 -0.0099,-0.0464 0,-0.0661 0.007,-0.0139 0.0261,-0.0191 0.03307,-0.0331 0.0049,-0.01 -0.0035,-0.0226 0,-0.0331 0.0078,-0.0234 0.02528,-0.0428 0.03307,-0.0661 0.007,-0.0209 -0.0099,-0.0464 0,-0.0661 0.007,-0.014 0.0261,-0.0191 0.03307,-0.0331 0.0049,-0.01 -0.0049,-0.0232 0,-0.0331 0.007,-0.0139 0.0261,-0.0191 0.03307,-0.0331 0.0049,-0.01 -0.0049,-0.0232 0,-0.0331 0.007,-0.0139 0.0261,-0.0191 0.03307,-0.0331 0.0049,-0.01 -0.0049,-0.0232 0,-0.0331 0.007,-0.014 0.0261,-0.0191 0.03307,-0.0331 0.0049,-0.01 -0.0049,-0.0232 0,-0.0331 0.007,-0.0139 0.02814,-0.0183 0.03307,-0.0331 5e-5,-1.5e-4 -3.2e-5,-0.0992 0,-0.0992 0.0078,-0.008 0.02528,0.008 0.03307,0 0.101514,-0.10151 -0.01932,-0.0275 0.03307,-0.13229 0.0049,-0.01 0.02528,0.008 0.03307,0 0.08354,-0.0835 0.01271,-0.0381 0.03307,-0.0992 0.07985,-0.23956 -0.0095,0.0521 0.06615,-0.0992 0.0049,-0.01 -0.0049,-0.0232 0,-0.0331 0.01395,-0.0279 0.05629,-0.0366 0.06615,-0.0661 0.007,-0.0209 -0.0053,-0.0448 0,-0.0661 0.006,-0.0239 0.02205,-0.0441 0.03307,-0.0661 0.01103,-0.022 0.0194,-0.0456 0.03307,-0.0661 0.0086,-0.013 0.02814,-0.0183 0.03307,-0.0331 0.007,-0.0209 -0.007,-0.0452 0,-0.0661 0.0099,-0.0296 0.05629,-0.0366 0.06615,-0.0662 0.01395,-0.0418 -0.01972,-0.0928 0,-0.13229 0.0049,-0.01 0.02205,0 0.03307,0 0.01103,-0.0221 0.02528,-0.0428 0.03307,-0.0661 0.0043,-0.0129 -0.0051,-0.0941 0,-0.0992 0.0078,-0.008 0.02205,0 0.03307,0 0.01103,-0.022 0.02528,-0.0428 0.03307,-0.0661 0.0089,-0.0266 -0.01057,-0.11116 0,-0.13229 0.01395,-0.0279 0.0522,-0.0383 0.06615,-0.0661 0.01323,-0.0265 -0.01323,-0.0728 0,-0.0992 0.007,-0.0139 0.0261,-0.0191 0.03307,-0.0331 0.0099,-0.0197 -0.0099,-0.0464 0,-0.0661 0.007,-0.0139 0.0261,-0.0191 0.03307,-0.0331 0.0037,-0.007 0,-0.12443 0,-0.13229 0,-0.011 0,-0.022 0,-0.0331 0,-0.011 -0.0049,-0.0232 0,-0.0331 0.007,-0.0139 0.0261,-0.0191 0.03307,-0.0331 0.01043,-0.0209 -0.01043,-0.1445 0,-0.16536 0.007,-0.014 0.0261,-0.0191 0.03307,-0.0331 0.01039,-0.0208 -0.01039,-0.1115 0,-0.13229 0.0049,-0.01 0.02528,0.008 0.03307,0 0.0078,-0.008 0,-0.0221 0,-0.0331 0,-0.011 0,-0.022 0,-0.0331 0,-0.0551 0,-0.11024 0,-0.16536 0,-0.022 -0.0099,-0.0464 0,-0.0661 0.0049,-0.01 0.02814,0.01 0.03307,0 0.0099,-0.0197 0,-0.0441 0,-0.0661 0,-0.0344 -0.0065,-0.17242 0,-0.19844 0.006,-0.0239 0.02528,-0.0428 0.03307,-0.0661 0.0069,-0.0208 0,-0.10567 0,-0.1323 0,-0.11024 0,-0.22048 0,-0.33073 0,-0.24253 0,-0.48507 0,-0.7276 0,-0.14332 0,-0.28663 0,-0.42995 0,-0.0234 0.0043,-0.18988 0,-0.19844 -0.007,-0.0139 -0.0261,-0.0191 -0.03307,-0.0331 -0.0099,-0.0197 0.01559,-0.0505 0,-0.0661 -0.0078,-0.008 -0.02528,0.008 -0.03307,0 -0.0068,-0.007 0.0066,-0.0861 0,-0.0992 -0.007,-0.014 -0.0261,-0.0191 -0.03307,-0.0331 -0.0049,-0.01 0,-0.022 0,-0.0331 -0.01103,-0.011 -0.0261,-0.0191 -0.03307,-0.0331 -0.0099,-0.0197 0.01559,-0.0506 0,-0.0661 -0.0078,-0.008 -0.02528,0.008 -0.03307,0 -0.01024,-0.0102 0.01024,-0.15512 0,-0.16536 -0.0078,-0.008 -0.02528,0.008 -0.03307,0 -0.0078,-0.008 0.0078,-0.0253 0,-0.0331 -0.0078,-0.008 -0.02528,0.008 -0.03307,0 -0.01654,-0.0165 0.01654,-0.0827 0,-0.0992 -0.0078,-0.008 -0.02528,0.008 -0.03307,0 -0.0078,-0.008 0.0078,-0.0253 0,-0.0331 -0.0078,-0.008 -0.02528,0.008 -0.03307,0 -0.0078,-0.008 0.0078,-0.0253 0,-0.0331 -0.0078,-0.008 -0.02528,0.008 -0.03307,0 -0.0078,-0.008 0.0078,-0.0253 0,-0.0331 -0.0078,-0.008 -0.02528,-0.008 -0.03307,0 -0.02281,0.0228 0.02446,0.0618 0.03307,0.0661 0.0099,0.005 0.02528,-0.008 0.03307,0 0.0078,0.008 0,0.022 0,0.0331 0,0.0776 -0.0078,-0.0156 0.03307,0.0661 0.0049,0.01 -0.0078,0.0253 0,0.0331 0.0078,0.008 0.02814,-0.01 0.03307,0 0.0099,0.0197 -0.007,0.0452 0,0.0661 0.0049,0.0148 0.0261,0.0191 0.03307,0.0331 0.0049,0.01 -0.0049,0.0232 0,0.0331 0.05043,0.10085 0.02622,-0.0605 0.06615,0.0992 0.0053,0.0214 -0.0099,0.0464 0,0.0661 0.0049,0.01 0.02528,-0.008 0.03307,0 0.129075,0.12908 -0.0077,0.0178 0.03307,0.0992 0.007,0.0139 0.0261,0.0191 0.03307,0.0331 0.0049,0.01 -0.0049,0.0232 0,0.0331 0.007,0.0139 0.02814,0.0183 0.03307,0.0331 0.007,0.0209 -0.0099,0.0464 0,0.0661 0.0049,0.01 0.02205,0 0.03307,0 0.01103,0.011 0.02814,0.0183 0.03307,0.0331 0.007,0.0209 0,0.0441 0,0.0661 0.02205,0.022 0.04885,0.0402 0.06614,0.0661 0.01223,0.0183 -0.007,0.0452 0,0.0661 0.07985,0.23956 -0.0095,-0.0521 0.06615,0.0992 0.01479,0.0296 -0.01479,0.0696 0,0.0992 0.0049,0.01 0.02205,0 0.03307,0 0.01102,0.011 0.02814,0.0183 0.03307,0.0331 0.007,0.0209 -0.007,0.0452 0,0.0661 0.0049,0.0148 0.0261,0.0191 0.03307,0.0331 0.0049,0.01 -0.0035,0.0226 0,0.0331 0.0078,0.0234 0.02528,0.0428 0.03307,0.0661 0.0035,0.0105 -0.0049,0.0232 0,0.0331 0.007,0.0139 0.0261,0.0191 0.03307,0.0331 0.0049,0.01 -0.0035,0.0226 0,0.0331 0.0078,0.0234 0.02528,0.0428 0.03307,0.0662 0.0035,0.0105 -0.0049,0.0232 0,0.0331 0.007,0.0139 0.02814,0.0183 0.03307,0.0331 0.007,0.0209 0,0.0441 0,0.0661 0,0.011 -0.0049,0.0232 0,0.0331 0.007,0.014 0.02442,0.0201 0.03307,0.0331 0.01367,0.0205 0.02205,0.0441 0.03307,0.0661 0.01103,0.0221 0.02528,0.0428 0.03307,0.0661 0.0035,0.0105 -0.0049,0.0232 0,0.0331 0.007,0.0139 0.02814,0.0183 0.03307,0.0331 0.007,0.0209 -0.007,0.0452 0,0.0661 0.0049,0.0148 0.0261,0.0191 0.03307,0.0331 0.0049,0.01 -0.0049,0.0232 0,0.0331 0.007,0.0139 0.02814,0.0183 0.03307,0.0331 0.007,0.0209 0,0.0441 0,0.0661 0,0.011 -0.0049,0.0232 0,0.0331 0.07568,0.15136 -0.01371,-0.14035 0.06615,0.0992 0.007,0.0209 -0.007,0.0452 0,0.0661 0.0078,0.0234 0.02528,0.0428 0.03307,0.0661 0.007,0.0209 -0.0099,0.0464 0,0.0661 0.007,0.014 0.02814,0.0183 0.03307,0.0331 0.007,0.0209 -0.0099,0.0464 0,0.0661 0.0049,0.01 0.02814,-0.01 0.03307,0 0.01972,0.0394 -0.01395,0.0905 0,0.13229 0.0099,0.0296 0.05629,0.0366 0.06615,0.0661 0.007,0.0209 0,0.0441 0,0.0661 0,0.011 -0.0049,0.0232 0,0.0331 0.007,0.0139 0.0261,0.0191 0.03307,0.0331 0.0049,0.01 -0.0035,0.0226 0,0.0331 0.0078,0.0234 0.02528,0.0428 0.03307,0.0661 0.007,0.0209 -0.007,0.0452 0,0.0661 0.07985,0.23957 -0.0095,-0.0521 0.06615,0.0992 0.01039,0.0208 -0.01039,0.11151 0,0.1323 0.007,0.0139 0.0261,0.0191 0.03307,0.0331 0.0049,0.01 -0.0035,0.0226 0,0.0331 0.0078,0.0234 0.02709,0.0422 0.03307,0.0661 0.0053,0.0214 -0.007,0.0452 0,0.0661 0.0049,0.0148 0.0261,0.0191 0.03307,0.0331 0.0049,0.01 -0.0035,0.0226 0,0.0331 0.0078,0.0234 0.02709,0.0422 0.03307,0.0661 0.0053,0.0214 0,0.0441 0,0.0661 0,0.011 -0.0049,0.0232 0,0.0331 0.007,0.014 0.0261,0.0191 0.03307,0.0331 0.01025,0.0205 -0.01015,0.14506 0,0.16536 0.0049,0.01 0.02814,-0.01 0.03307,0 0.0099,0.0197 -0.0099,0.0464 0,0.0661 0.0049,0.01 0.02814,-0.01 0.03307,0 0.01398,0.028 -0.01178,0.13001 0,0.16536 0.0078,0.0234 0.02709,0.0422 0.03307,0.0661 0.0053,0.0214 0,0.0441 0,0.0661 0.01103,0.022 0.02528,0.0428 0.03307,0.0661 0.01038,0.0312 -0.01072,0.17699 0,0.19844 0.007,0.0139 0.0261,0.0191 0.03307,0.0331 0.0099,0.0197 -0.0099,0.0464 0,0.0661 0.007,0.014 0.0261,0.0191 0.03307,0.0331 0.0049,0.01 0,0.0221 0,0.0331 0,0.0551 0,0.11024 0,0.16537 0,0.011 0,0.022 0,0.0331 0,0.011 -0.0049,0.0232 0,0.0331 0.007,0.014 0.0261,0.0191 0.03307,0.0331 0.0049,0.01 -0.0049,0.0232 0,0.0331 0.007,0.0139 0.0261,0.0191 0.03307,0.0331 0.0043,0.009 0,0.175 0,0.19844 0,0.011 -0.0078,0.0253 0,0.0331 0.0078,0.008 0.02528,-0.008 0.03307,0 0.01559,0.0156 -0.0099,0.0464 0,0.0661 0.007,0.0139 0.0261,0.0191 0.03307,0.0331 0.005,0.0101 0,0.0843 0,0.0992 0,0.0776 -0.0078,-0.0156 0.03307,0.0661 0.0049,0.01 -0.0049,0.0232 0,0.0331 0.007,0.0139 0.0261,0.0191 0.03307,0.0331 0.01323,0.0265 -0.01323,0.0728 0,0.0992 0.007,0.0139 0.0261,0.0191 0.03307,0.0331 0.01764,0.0353 -0.01764,0.0309 0,0.0661 0.007,0.0139 0.0261,0.0191 0.03307,0.0331 0.0049,0.01 -0.0049,0.0232 0,0.0331 0.007,0.014 0.0261,0.0191 0.03307,0.0331 0.0066,0.0131 -0.0068,0.0925 0,0.0992 0.0078,0.008 0.02528,-0.008 0.03307,0 0.01559,0.0156 -0.01559,0.0506 0,0.0661 0.0078,0.008 0.02528,-0.008 0.03307,0 0.01161,0.0116 -0.01142,0.14252 0,0.16536 0.007,0.0139 0.0261,0.0191 0.03307,0.0331 0.0049,0.01 -0.0078,0.0253 0,0.0331 0.0078,0.008 0.02528,-0.008 0.03307,0 0.01161,0.0116 -0.01142,0.14252 0,0.16537 0.007,0.0139 0.0261,0.0191 0.03307,0.0331 0.0049,0.01 -0.0049,0.0232 0,0.0331 0.007,0.014 0.0261,0.0191 0.03307,0.0331 0.01323,0.0265 -0.01323,0.0728 0,0.0992 0.007,0.014 0.0261,0.0191 0.03307,0.0331 0.0049,0.01 -0.0078,0.0253 0,0.0331 0.0078,0.008 0.02528,-0.008 0.03307,0 0.01559,0.0156 -0.0099,0.0464 0,0.0661 0.007,0.014 0.0261,0.0191 0.03307,0.0331 0.0049,0.01 -0.0078,0.0253 0,0.0331 0.0078,0.008 0.02528,-0.008 0.03307,0 0.01559,0.0156 -0.01559,0.0506 0,0.0661 0.0078,0.008 0.02814,-0.01 0.03307,0 0.0099,0.0197 -0.007,0.0452 0,0.0661 0.0099,0.0296 0.0522,0.0383 0.06615,0.0661 0.0099,0.0197 -0.01559,0.0505 0,0.0661 0.0078,0.008 0.02528,-0.008 0.03307,0 0.0078,0.008 -0.0078,0.0253 0,0.0331 0.0078,0.008 0.02528,-0.008 0.03307,0 0.01559,0.0156 -0.01559,0.0505 0,0.0661 0.0078,0.008 0.02528,-0.008 0.03307,0 0.0078,0.008 -0.0049,0.0232 0,0.0331 0.007,0.0139 0.0261,0.0191 0.03307,0.0331 0.0099,0.0197 -0.01559,0.0505 0,0.0661 0.0078,0.008 0.02814,-0.01 0.03307,0 0.0099,0.0197 -0.0099,0.0464 0,0.0662 0.0049,0.01 0.02528,-0.008 0.03307,0 0.01654,0.0165 -0.01654,0.0827 0,0.0992 0.0078,0.008 0.02528,-0.008 0.03307,0 0.0078,0.008 -0.0049,0.0232 0,0.0331 0.007,0.014 0.02814,0.0183 0.03307,0.0331 0.007,0.0209 -0.0099,0.0464 0,0.0661 0.0049,0.01 0.02528,-0.008 0.03307,0 0.0078,0.008 -0.0049,0.0232 0,0.0331 0.007,0.014 0.0261,0.0191 0.03307,0.0331 0.0049,0.01 0,0.022 0,0.0331 0,0.011 0,0.0221 0,0.0331"
       id="path255"
       inkscape:connector-curvature="0" />
    <g
       id="g263"
       transform="translate(-1.355991,-1.25679)">
      <path
         inkscape:connector-curvature="0"
         id="path257"
         d="m 11.707813,281.75336 c 0.03307,0.0441 0.06615,0.0882 0.09922,0.13229 0.01103,0 0.02321,-0.005 0.03307,0 0.01395,0.007 0.0261,0.0191 0.03307,0.0331 0.01039,0.0208 -0.01039,0.11151 0,0.1323 0.007,0.0139 0.0261,0.0191 0.03307,0.0331 0.005,0.0101 0,0.0843 0,0.0992 0,0.0661 0,0.13229 0,0.19843 0,0.0776 -0.0078,-0.0156 0.03307,0.0661 0.0043,0.009 0,0.175 0,0.19844 0,0.0992 0,0.19844 0,0.29765 0,0.0113 -0.006,0.1144 0,0.1323 0.0078,0.0234 0.02709,0.0422 0.03307,0.0661 0.0086,0.0343 0,0.0944 0,0.13229 0,0.0772 0,0.15434 0,0.23151 0,0.0221 0,0.0441 0,0.0661 0,0.011 -0.0049,0.0232 0,0.0331 0.007,0.014 0.0261,0.0191 0.03307,0.0331 0.0049,0.01 0,0.022 0,0.0331 0,0.0221 0,0.0441 0,0.0661 0,0.11025 0,0.22049 0,0.33073 0,0.26459 0,0.52917 0,0.79375 0,0.30868 0,0.61736 0,0.92604 0,0.0156 0.0015,0.16387 0,0.16537 -0.0078,0.008 -0.02814,-0.01 -0.03307,0 -0.0096,0.0192 0.0097,0.17894 0,0.19844 -0.007,0.0139 -0.0261,0.0191 -0.03307,0.0331 -0.005,0.0101 0,0.0843 0,0.0992 0,0.19844 0,0.39687 0,0.59531 0,0.0551 0,0.11024 0,0.16537 0,0.022 0,0.0441 0,0.0661 0,0.011 0.0049,0.0232 0,0.0331 -0.007,0.0139 -0.02814,0.0183 -0.03307,0.0331 -0.01263,0.0379 0.01493,0.16857 0,0.19843 -0.0049,0.01 -0.02814,-0.01 -0.03307,0 -0.0096,0.0192 0.0097,0.17895 0,0.19844 -0.007,0.014 -0.02814,0.0183 -0.03307,0.0331 0,0.15055 0.01559,0.002 -0.03307,0.0992 -0.0049,0.01 0,0.022 0,0.0331 0,0.011 0,0.022 0,0.0331 0,0.0551 0,0.11024 0,0.16536 0,0.16537 0,0.33073 0,0.4961"
         style="fill:none;stroke:#000000;stroke-width:0.26458335px;stroke-linecap:butt;stroke-linejoin:miter;stroke-opacity:1" />
      <path
         inkscape:connector-curvature="0"
         id="path259"
         d="m 9.9880211,285.1268 c -0.1174195,0.42244 0.1154499,0.0824 0.1653649,0.13229 0.0078,0.008 -0.0099,0.0281 0,0.0331 0.01972,0.01 0.04643,-0.01 0.06615,0 0.0099,0.005 -0.0078,0.0253 0,0.0331 0.0078,0.008 0.02321,-0.005 0.03307,0 0.01395,0.007 0.01913,0.0261 0.03307,0.0331 0.0099,0.005 0.02321,-0.005 0.03307,0 0.01395,0.007 0.01913,0.0261 0.03307,0.0331 0.01972,0.01 0.04643,-0.01 0.06615,0 0.01395,0.007 0.01913,0.0261 0.03307,0.0331 0.0099,0.005 0.02261,-0.003 0.03307,0 0.02339,0.008 0.04276,0.0253 0.06615,0.0331 0.02976,0.01 0.06945,-0.01 0.09922,0 0.01479,0.005 0.0201,0.0244 0.03307,0.0331 0.02051,0.0137 0.04276,0.0253 0.06615,0.0331 0.02092,0.007 0.04523,-0.007 0.06615,0 0.02339,0.008 0.04223,0.0271 0.06615,0.0331 0.03113,0.008 0.06809,-0.008 0.09922,0 0.03382,0.008 0.0654,0.0246 0.09922,0.0331 0.04295,0.0107 0.123259,-0.0105 0.165365,0 0.02392,0.006 0.04276,0.0253 0.06615,0.0331 0.03138,0.0105 0.06679,-0.006 0.09922,0 0.03418,0.007 0.0654,0.0246 0.09922,0.0331 0.02829,0.007 0.132308,0 0.165365,0 0.132292,0 0.264583,0 0.396875,0 0.198437,0 0.396875,0 0.595312,0 0.05512,0 0.110244,0 0.165365,0 0.02205,0 0.04453,0.004 0.06615,0 0.03418,-0.007 0.0654,-0.0246 0.09922,-0.0331 0.01069,-0.003 0.02205,0 0.03307,0 0.03307,0 0.0666,0.005 0.09922,0 0.03439,-0.006 0.06483,-0.0273 0.09922,-0.0331 0.05437,-0.009 0.110243,0 0.165365,0 0.02205,0 0.04453,0.004 0.06615,0 0.342595,-0.1142 -0.136764,0.034 0.198438,-0.0331 0.02417,-0.005 0.04197,-0.0282 0.06615,-0.0331 0.07605,-0.0152 0.186755,0.013 0.264583,0 0.03439,-0.006 0.06503,-0.0262 0.09922,-0.0331 0.02162,-0.004 0.04476,0.005 0.06615,0 0.02392,-0.006 0.04197,-0.0282 0.06615,-0.0331 0.03243,-0.006 0.06679,0.006 0.09922,0 0.02417,-0.005 0.04223,-0.0271 0.06615,-0.0331 0.02139,-0.005 0.04453,0.004 0.06615,0 0.03419,-0.007 0.06503,-0.0262 0.09922,-0.0331 0.05405,-0.0108 0.111313,0.0108 0.165364,0 0.04835,-0.01 0.08395,-0.0565 0.132292,-0.0662 0.03243,-0.006 0.06713,0.008 0.09922,0 0.01513,-0.004 0.01795,-0.0293 0.03307,-0.0331 0.03209,-0.008 0.06679,0.006 0.09922,0 0.02417,-0.005 0.04197,-0.0282 0.06615,-0.0331 0.252302,0 -0.02609,0.0148 0.165365,-0.0331 0.04278,-0.0107 0.09046,0.0139 0.132291,0 0.01479,-0.005 0.02205,-0.022 0.03307,-0.0331 0.03307,-0.011 0.06503,-0.0262 0.09922,-0.0331 0.04324,-0.009 0.08951,0.0107 0.132292,0 0.02392,-0.006 0.04276,-0.0253 0.06615,-0.0331 0.01046,-0.003 0.02238,0.003 0.03307,0 0.03382,-0.008 0.06503,-0.0262 0.09922,-0.0331 0.02162,-0.004 0.04476,0.005 0.06615,0 0.02392,-0.006 0.04223,-0.0271 0.06615,-0.0331 0.02139,-0.005 0.0441,0 0.06615,0 0.02205,-0.011 0.04276,-0.0253 0.06615,-0.0331 0.03138,-0.0105 0.06713,0.008 0.09922,0 0.04783,-0.012 0.08552,-0.0506 0.132292,-0.0661 0.02833,-0.009 0.103114,0.007 0.132292,0 0.05986,0.0199 0.06151,-0.0536 0.09922,-0.0661 0.01513,-0.005 0.117575,0.007 0.132291,0 0.01395,-0.007 0.01913,-0.0261 0.03307,-0.0331 0.02958,-0.0148 0.06964,0.0148 0.09922,0 0.0099,-0.005 -0.0099,-0.0281 0,-0.0331 0.0203,-0.0102 0.144862,0.0102 0.165364,0 0.01395,-0.007 0.01913,-0.0261 0.03307,-0.0331 0.0087,-0.004 0.114998,0 0.132292,0 0.01103,0 0.0441,0 0.03307,0 -0.110243,0 -0.220486,0 -0.330729,0"
         style="fill:none;stroke:#000000;stroke-width:0.26458335px;stroke-linecap:butt;stroke-linejoin:miter;stroke-opacity:1" />
    </g>
  </g>
</svg>
