<?xml version="1.0" encoding="UTF-8" standalone="no"?>
<!-- Created with Inkscape (http://www.inkscape.org/) -->

<svg
   xmlns:dc="http://purl.org/dc/elements/1.1/"
   xmlns:cc="http://creativecommons.org/ns#"
   xmlns:rdf="http://www.w3.org/1999/02/22-rdf-syntax-ns#"
   xmlns:svg="http://www.w3.org/2000/svg"
   xmlns="http://www.w3.org/2000/svg"
   xmlns:sodipodi="http://sodipodi.sourceforge.net/DTD/sodipodi-0.dtd"
   xmlns:inkscape="http://www.inkscape.org/namespaces/inkscape"
   width="64"
   height="64"
   viewBox="0 0 16.933333 16.933334"
   version="1.1"
   id="svg125"
   inkscape:version="0.92.1 r15371"
   sodipodi:docname="level_up.svg">
  <defs
     id="defs119" />
  <sodipodi:namedview
     id="base"
     pagecolor="#ffffff"
     bordercolor="#666666"
     borderopacity="1.0"
     inkscape:pageopacity="0.0"
     inkscape:pageshadow="2"
     inkscape:zoom="8"
     inkscape:cx="30.981563"
     inkscape:cy="26.6703"
     inkscape:document-units="px"
     inkscape:current-layer="layer1"
     showgrid="false"
     units="px"
     inkscape:window-width="1920"
     inkscape:window-height="1053"
     inkscape:window-x="0"
     inkscape:window-y="27"
     inkscape:window-maximized="1"
     inkscape:snap-page="true" />
  <metadata
     id="metadata122">
    <rdf:RDF>
      <cc:Work
         rdf:about="">
        <dc:format>image/svg+xml</dc:format>
        <dc:type
           rdf:resource="http://purl.org/dc/dcmitype/StillImage" />
        <dc:title></dc:title>
      </cc:Work>
    </rdf:RDF>
  </metadata>
  <g
     inkscape:label="Ebene 1"
     inkscape:groupmode="layer"
     id="layer1"
     transform="translate(0,-280.06664)">
    <path
       id="path288"
       style="fill:none;stroke:#000000;stroke-width:0.26458335px;stroke-linecap:butt;stroke-linejoin:miter;stroke-opacity:1"
       d="m 8.1028653,282.21638 c 0.07717,0.0551 0.1543399,0.11024 0.2315099,0.16536 0.011025,0 0.025278,-0.008 0.033073,0 0.00779,0.008 -0.00779,0.0253 0,0.0331 0.00779,0.008 0.025278,-0.008 0.033073,0 0.00779,0.008 -0.00779,0.0253 0,0.0331 0.00779,0.008 0.025278,-0.008 0.033073,0 0.00779,0.008 -0.00779,0.0253 0,0.0331 0.00779,0.008 0.025278,-0.008 0.033073,0 0.015592,0.0156 -0.015592,0.0506 0,0.0661 0.015592,0.0156 0.050555,-0.0156 0.066146,0 0.068429,0.0684 -0.1045686,-0.003 0.033073,0.0661 0.00986,0.005 0.025278,-0.008 0.033073,0 0.068429,0.0684 -0.1045687,-0.003 0.033073,0.0661 0.00986,0.005 0.025278,-0.008 0.033073,0 0.015592,0.0156 -0.015592,0.0506 0,0.0661 0.015592,0.0156 0.050555,-0.0156 0.066146,0 0.015592,0.0156 -0.015592,0.0506 0,0.0661 0.015592,0.0156 0.050555,-0.0156 0.066146,0 0.015592,0.0156 -0.015592,0.0506 0,0.0661 0.088194,0 -0.011025,-0.011 0.033073,0.0331 0.00779,0.008 0.023212,-0.005 0.033073,0 0.1376415,0.0688 -0.035356,-0.002 0.033073,0.0661 0.068429,0.0684 -0.00267,-0.10457 0.066146,0.0331 0.00493,0.01 -0.00779,0.0253 0,0.0331 0.015592,0.0156 0.056285,-0.0197 0.066146,0 0.00986,0.0197 -0.00986,0.0464 0,0.0661 0.00986,0.0197 0.050555,-0.0156 0.066146,0 0.068429,0.0684 -0.1045686,-0.003 0.033073,0.0661 0.00986,0.005 0.025278,-0.008 0.033073,0 0.068429,0.0684 -0.1045686,-0.003 0.033073,0.0661 0.00986,0.005 0.025278,-0.008 0.033073,0 0.00779,0.008 -0.00493,0.0232 0,0.0331 0.00697,0.0139 0.022048,0.022 0.033073,0.0331 0.011025,0.011 0.019127,0.0261 0.033073,0.0331 0.088194,0 -0.011025,-0.011 0.033073,0.0331 0.00779,0.008 0.025278,-0.008 0.033073,0 0.00779,0.008 -0.00779,0.0253 0,0.0331 0.00779,0.008 0.025278,-0.008 0.033073,0 0.068429,0.0684 -0.1045687,-0.003 0.033073,0.0661 0.00986,0.005 0.023212,-0.005 0.033073,0 0.032545,0.0163 0.099747,0.11602 0.1322917,0.13229 0.045619,0.0228 0.029583,-0.0401 0.066146,0.0331 0.00493,0.01 -0.00779,0.0253 0,0.0331 0.068429,0.0684 -0.00267,-0.10457 0.066146,0.0331 0.00493,0.01 -0.00779,0.0253 0,0.0331 0.015592,0.0156 0.050555,-0.0156 0.066146,0 0.00779,0.008 -0.00779,0.0253 0,0.0331 0.00779,0.008 0.023212,-0.005 0.033073,0 0.027889,0.0139 0.038256,0.0522 0.066146,0.0661 0.00986,0.005 0.023212,-0.005 0.033073,0 0.1376421,0.0688 -0.035356,-0.002 0.033073,0.0661 0.015592,0.0156 0.050555,-0.0156 0.066146,0 0.0078,0.008 -0.0078,0.0253 0,0.0331 0.0078,0.008 0.02321,-0.005 0.03307,0 0.03969,0.0199 0.05953,0.0794 0.09922,0.0992 0.0099,0.005 0.02528,-0.008 0.03307,0 0.0078,0.008 -0.0078,0.0253 0,0.0331 0.0078,0.008 0.02528,-0.008 0.03307,0 0.0078,0.008 -0.0078,0.0253 0,0.0331 0.01559,0.0156 0.04642,-0.01 0.06615,0 0.01395,0.007 0.02205,0.022 0.03307,0.0331 0,0.011 -0.0099,0.0281 0,0.0331 0.01972,0.01 0.04643,-0.01 0.06615,0 0.0099,0.005 -0.0078,0.0253 0,0.0331 0.0078,0.008 0.02321,-0.005 0.03307,0 0.02789,0.0139 0.03826,0.0522 0.06615,0.0661 0.0099,0.005 0.02528,-0.008 0.03307,0 0.0078,0.008 -0.0078,0.0253 0,0.0331 0.0078,0.008 0.02528,-0.008 0.03307,0 0.0078,0.008 -0.0078,0.0253 0,0.0331 0.0078,0.008 0.02321,-0.005 0.03307,0 0.02789,0.0139 0.03826,0.0522 0.06614,0.0661 0.0099,0.005 0.02528,-0.008 0.03307,0 0.0078,0.008 -0.0078,0.0253 0,0.0331 0.0078,0.008 0.02528,-0.008 0.03307,0 0.0078,0.008 -0.0078,0.0253 0,0.0331 0.0078,0.008 0.02528,-0.008 0.03307,0 0.0078,0.008 -0.0049,0.0232 0,0.0331 0.06882,0.13764 -0.0023,-0.0354 0.06615,0.0331 0.0078,0.008 -0.0078,0.0253 0,0.0331 0.0078,0.008 0.02528,-0.008 0.03307,0 0.0078,0.008 -0.0078,0.0253 0,0.0331 0.0078,0.008 0.02528,-0.008 0.03307,0 0.0078,0.008 -0.0078,0.0253 0,0.0331 0.01559,0.0156 0.05055,-0.0156 0.06615,0 0.01559,0.0156 -0.01559,0.0506 0,0.0661 0.0078,0.008 0.02528,-0.008 0.03307,0 0.06843,0.0684 -0.104569,-0.003 0.03307,0.0661 0.0099,0.005 0.02528,-0.008 0.03307,0 0.06843,0.0684 -0.104568,-0.003 0.03307,0.0661 0.0099,0.005 0.02528,-0.008 0.03307,0 0.06843,0.0684 -0.104568,-0.003 0.03307,0.0661 0.0099,0.005 0.02528,-0.008 0.03307,0 0.01559,0.0156 -0.01559,0.0505 0,0.0661 0.01559,0.0156 0.05055,-0.0156 0.06615,0 0.01559,0.0156 -0.01559,0.0506 0,0.0661 0.0078,0.008 0.02528,-0.008 0.03307,0 0.0078,0.008 -0.0078,0.0253 0,0.0331 0.0078,0.008 0.02528,-0.008 0.03307,0 0.0078,0.008 -0.0078,0.0253 0,0.0331 0.0078,0.008 0.02528,-0.008 0.03307,0 0.0078,0.008 -0.0078,0.0253 0,0.0331 0.0078,0.008 0.02528,-0.008 0.03307,0 0.01559,0.0156 -0.01559,0.0505 0,0.0661 0.0078,0.008 0.02528,-0.008 0.03307,0 0.0078,0.008 -0.0078,0.0253 0,0.0331 0.08819,0 -0.01103,-0.011 0.03307,0.0331 0.0078,0.008 0.02528,-0.008 0.03307,0 0.01559,0.0156 -0.01559,0.0505 0,0.0661 0.0078,0.008 0.02528,-0.008 0.03307,0 0.0078,0.008 -0.0078,0.0253 0,0.0331 0.0078,0.008 0.02528,-0.008 0.03307,0 0.0078,0.008 -0.0049,0.0232 0,0.0331 0.007,0.0139 0.0261,0.0191 0.03307,0.0331 0.0049,0.01 -0.0078,0.0253 0,0.0331 0.0078,0.008 0.02528,-0.008 0.03307,0 0.0078,0.008 -0.0078,0.0253 0,0.0331 0.0078,0.008 0.02528,-0.008 0.03307,0 0.0078,0.008 -0.0078,0.0253 0,0.0331 0.0078,0.008 0.02528,-0.008 0.03307,0 0.01654,0.0165 -0.01654,0.0827 0,0.0992 0.01559,0.0156 0.05055,-0.0156 0.06615,0 0.01654,0.0165 -0.01654,0.0827 0,0.0992 0.0078,0.008 0.02528,-0.008 0.03307,0 0.0078,0.008 -0.0078,0.0253 0,0.0331 0.0441,0.0441 0.03307,-0.0551 0.03307,0.0331 m -3.7040929,-3.57195 c -0.022048,0.0882 -0.034226,0.17946 -0.066146,0.26458 -0.00774,0.0207 -0.050555,-0.0156 -0.066146,0 -0.015592,0.0156 0.015592,0.0506 0,0.0661 -0.00779,0.008 -0.025278,-0.008 -0.033073,0 -0.00779,0.008 0.00779,0.0253 0,0.0331 -0.00779,0.008 -0.025278,-0.008 -0.033073,0 -0.00779,0.008 0.00779,0.0253 0,0.0331 -0.00779,0.008 -0.025278,-0.008 -0.033073,0 -0.015592,0.0156 0.015592,0.0506 0,0.0661 -0.015592,0.0156 -0.050555,-0.0156 -0.066146,0 -0.015592,0.0156 0.015592,0.0506 0,0.0661 -0.00779,0.008 -0.023212,-0.005 -0.033073,0 -0.1376415,0.0688 0.035356,-0.002 -0.033073,0.0661 -0.00779,0.008 -0.023212,-0.005 -0.033073,0 -0.1376416,0.0688 0.035356,-0.002 -0.033073,0.0661 -0.00779,0.008 -0.023212,-0.005 -0.033073,0 -0.050654,0.0253 -0.025863,0.0589 -0.066146,0.0992 -0.00779,0.008 -0.023212,-0.005 -0.033073,0 -0.1376416,0.0688 0.035356,-0.002 -0.033073,0.0661 -0.00779,0.008 -0.025278,-0.008 -0.033073,0 -0.00779,0.008 0.00779,0.0253 0,0.0331 -0.00779,0.008 -0.025278,-0.008 -0.033073,0 -0.00779,0.008 0.00779,0.0253 0,0.0331 -0.00779,0.008 -0.025278,-0.008 -0.033073,0 -0.00779,0.008 0.00493,0.0232 0,0.0331 -0.00883,0.0177 -0.081807,0.0818 -0.099219,0.0992 -0.017412,0.0174 -0.081555,0.0904 -0.099219,0.0992 -0.00986,0.005 -0.025278,-0.008 -0.033073,0 -0.00779,0.008 0.00493,0.0232 0,0.0331 -0.016272,0.0326 -0.1160193,0.0998 -0.1322917,0.13229 -0.00493,0.01 0.00779,0.0253 0,0.0331 -0.00779,0.008 -0.025278,-0.008 -0.033073,0 -0.00779,0.008 0.00493,0.0232 0,0.0331 -0.068821,0.13764 0.00228,-0.0354 -0.066146,0.0331 -0.00779,0.008 0.00493,0.0232 0,0.0331 -0.036563,0.0731 -0.020526,0.0103 -0.066146,0.0331 -0.073126,0.0366 -0.010263,0.0205 -0.033073,0.0661 -0.068821,0.13765 0.00228,-0.0353 -0.066146,0.0331 -0.00779,0.008 0.00493,0.0232 0,0.0331 -0.036563,0.0731 -0.020526,0.0103 -0.066146,0.0331 -0.054158,0.0271 -0.026718,0.096 -0.033073,0.0992 -0.019722,0.01 -0.046425,-0.01 -0.066146,0 -0.019722,0.01 0.00986,0.0464 0,0.0661 -0.036563,0.0731 -0.020526,0.0103 -0.066146,0.0331 -0.1376416,0.0688 0.035356,-0.002 -0.033073,0.0661 -0.00779,0.008 -0.025278,-0.008 -0.033073,0 -0.040282,0.0403 -0.015491,0.0739 -0.066146,0.0992 -0.00986,0.005 -0.025278,-0.008 -0.033073,0 -0.00779,0.008 0.00493,0.0232 0,0.0331 -0.068821,0.13764 0.00228,-0.0354 -0.066146,0.0331 -0.00779,0.008 0.00779,0.0253 0,0.0331 -0.017431,0.0174 -0.048715,0.0157 -0.066146,0.0331 -0.015592,0.0156 0.019722,0.0563 0,0.0661 -0.019722,0.01 -0.046425,-0.01 -0.066146,0 -0.019722,0.01 0.015592,0.0506 0,0.0662 -0.00779,0.008 -0.025278,-0.008 -0.033073,0 -0.00779,0.008 0.00779,0.0253 0,0.0331 -0.017431,0.0174 -0.048715,0.0156 -0.066146,0.0331 -0.011025,0.0221 -0.022048,0.0441 -0.033073,0.0661 -0.011025,0 -0.025278,-0.008 -0.033073,0 -0.00779,0.008 0.00986,0.0281 0,0.0331 -0.019722,0.01 -0.046425,-0.01 -0.066146,0 -0.00986,0.005 0.00493,0.0232 0,0.0331 -0.00697,0.0139 -0.022048,0.022 -0.033073,0.0331 -0.011025,0.011 -0.022048,0.0221 -0.033073,0.0331 -0.011025,0.011 -0.019129,0.0261 -0.033073,0.0331 -0.00986,0.005 -0.025278,-0.008 -0.033073,0 -0.068429,0.0684 0.1045686,-0.003 -0.033073,0.0661 -0.00986,0.005 -0.025278,-0.008 -0.033073,0 -0.00779,0.008 0.00493,0.0232 0,0.0331 -0.00697,0.014 -0.022048,0.022 -0.033073,0.0331 -0.011025,0.011 -0.019129,0.0261 -0.033073,0.0331 -0.00986,0.005 -0.025278,-0.008 -0.033073,0 -0.00779,0.008 0.00779,0.0253 0,0.0331 -0.00779,0.008 -0.023212,-0.005 -0.033073,0 -0.1376416,0.0688 0.035356,-0.002 -0.033073,0.0661 -0.00779,0.008 -0.023212,-0.005 -0.033073,0 -0.013943,0.007 -0.019129,0.0261 -0.033073,0.0331 -0.00986,0.005 -0.025278,-0.008 -0.033073,0 -0.00779,0.008 0.00779,0.0253 0,0.0331 -0.00779,0.008 -0.025278,-0.008 -0.033073,0 -0.00779,0.008 0.00493,0.0232 0,0.0331 -0.068821,0.13764 0.00228,-0.0354 -0.066146,0.0331 -0.00779,0.008 0.00779,0.0253 0,0.0331 -0.068429,0.0684 0.00267,-0.10457 -0.066146,0.0331 0,0.0882 0.011025,-0.011 -0.033073,0.0331 -0.00779,0.008 0.00779,0.0253 0,0.0331 -0.00779,0.008 -0.025278,-0.008 -0.033073,0 -0.00779,0.008 0.00779,0.0253 0,0.0331 -0.00779,0.008 -0.023212,-0.005 -0.033073,0 -0.013944,0.007 -0.019129,0.0261 -0.033073,0.0331 -0.00986,0.005 -0.025278,-0.008 -0.033073,0 -0.015592,0.0156 0.015592,0.0505 0,0.0661 -0.00779,0.008 -0.023212,-0.005 -0.033073,0 -0.1376415,0.0688 0.035356,-0.002 -0.033073,0.0661 -0.00779,0.008 -0.023212,-0.005 -0.033073,0 -0.1376416,0.0688 0.035356,-0.002 -0.033073,0.0661 -0.00779,0.008 -0.025278,-0.008 -0.033073,0 -0.00779,0.008 0.00779,0.0253 0,0.0331 -0.00779,0.008 -0.025278,-0.008 -0.033073,0 -0.00779,0.008 0.00779,0.0253 0,0.0331 -0.068429,0.0684 0.00267,-0.10457 -0.066146,0.0331 -0.00493,0.01 0.00779,0.0253 0,0.0331 -0.00779,0.008 -0.025278,-0.008 -0.033073,0 -0.015592,0.0156 0.015592,0.0506 0,0.0661 -0.00779,0.008 -0.025278,-0.008 -0.033073,0 -0.00779,0.008 0.00779,0.0253 0,0.0331 -0.00779,0.008 -0.025278,-0.008 -0.033073,0 -0.00779,0.008 0.00493,0.0232 0,0.0331 -0.068821,0.13764 0.00228,-0.0354 -0.066146,0.0331 -0.00779,0.008 0.00493,0.0232 0,0.0331 -0.068821,0.13765 0.00228,-0.0353 -0.066146,0.0331 -0.00779,0.008 0.00779,0.0253 0,0.0331 -0.00779,0.008 -0.025278,-0.008 -0.033073,0 -0.00779,0.008 0.00779,0.0253 0,0.0331 -0.00779,0.008 -0.025278,-0.008 -0.033073,0 -0.00779,0.008 0.00779,0.0253 0,0.0331 -0.00779,0.008 -0.025278,-0.008 -0.033073,0 -0.00779,0.008 0.00779,0.0253 0,0.0331 -0.00779,0.008 -0.025278,-0.008 -0.033073,0 -0.00779,0.008 0.00779,0.0253 0,0.0331 -0.044097,0.0441 -0.033073,-0.0551 -0.033073,0.0331 m 3.6049564,-3.90327 c 0.022048,0.0441 0.036565,0.0928 0.066146,0.13229 0.013229,0.0176 0.050555,-0.0156 0.066146,0 0.016536,0.0165 -0.016537,0.0827 0,0.0992 0.00779,0.008 0.025278,-0.008 0.033073,0 0.015592,0.0156 -0.015592,0.0506 0,0.0662 0.00779,0.008 0.025278,-0.008 0.033073,0 0.00779,0.008 0,0.022 0,0.0331 0,0.0882 0,0.17639 0,0.26458 0,0.0661 0,0.13229 0,0.19844 0,0.011 0,0.022 0,0.0331 0,0.011 0.00493,0.0232 0,0.0331 -0.00697,0.0139 -0.026101,0.0191 -0.033073,0.0331 -0.00493,0.01 0,0.022 0,0.0331 0,0.011 0,0.022 0,0.0331 0,0.0551 0,0.11025 0,0.16537 0,0.011 0,0.022 0,0.0331 0,0.011 0.00493,0.0232 0,0.0331 -0.00697,0.014 -0.028143,0.0183 -0.033073,0.0331 -0.00697,0.0209 0,0.0441 0,0.0661 0,0.0221 0,0.0441 0,0.0661 0,0.0882 0,0.17639 0,0.26458 0,0.0772 0,0.15434 0,0.23151 0,0.008 -0.00371,0.12488 0,0.13229 0.00697,0.0139 0.028143,0.0183 0.033073,0.0331 0.00697,0.0209 0,0.0441 0,0.0661 0,0.0221 0,0.0441 0,0.0662 0,0.0661 0,0.13229 0,0.19844 0,0.022 -0.00697,0.0452 0,0.0661 0.00493,0.0148 0.028143,0.0183 0.033073,0.0331 0.00632,0.0189 0,0.13431 0,0.16536 0,0.13229 0,0.26458 0,0.39688 0,0.26458 0,0.52916 0,0.79375 0,0.0661 0,0.13229 0,0.19843 0,0.022 0,0.0441 0,0.0661 0,0.022 0.00535,0.0447 0,0.0661 -0.00598,0.0239 -0.025278,0.0428 -0.033073,0.0661 -0.00349,0.0105 0,0.0221 0,0.0331 0,0.0331 0.00649,0.0668 0,0.0992 -0.00483,0.0242 -0.027094,0.0422 -0.033073,0.0661 -0.00535,0.0214 0,0.0441 0,0.0661 0,0.0344 0.0065,0.17243 0,0.19844 -0.00598,0.0239 -0.027094,0.0422 -0.033073,0.0661 -0.010694,0.0428 0.010694,0.0895 0,0.13229 -0.00598,0.0239 -0.027094,0.0422 -0.033073,0.0661 -0.00535,0.0214 0,0.0441 0,0.0661 0,0.0331 0,0.0661 0,0.0992 0,0.022 0.00535,0.0447 0,0.0661 -0.00598,0.0239 -0.025278,0.0428 -0.033073,0.0661 -0.00349,0.0105 0,0.0221 0,0.0331 0,0.009 0.00554,0.18181 0,0.19844 -0.015592,0.0468 -0.054188,0.0845 -0.066146,0.13229 -0.00535,0.0214 0,0.0441 0,0.0661 0,0.0331 0,0.0661 0,0.0992 0,0.011 0.00267,0.0224 0,0.0331 -0.00846,0.0338 -0.026236,0.065 -0.033073,0.0992 -0.00432,0.0216 0.00535,0.0447 0,0.0661 -0.00598,0.0239 -0.027094,0.0422 -0.033073,0.0661 -0.014356,0.0574 0.014356,0.14102 0,0.19844 -0.00598,0.0239 -0.027094,0.0422 -0.033073,0.0661 -0.00535,0.0214 0.00535,0.0448 0,0.0661 -0.00598,0.0239 -0.027094,0.0422 -0.033073,0.0661 -0.014356,0.0574 0.014356,0.14101 0,0.19843 -0.00598,0.0239 -0.027094,0.0422 -0.033073,0.0661 -0.020751,0.083 0.020751,0.0493 0,0.13229 -0.00598,0.0239 -0.025278,0.0428 -0.033073,0.0661 -0.010684,0.032 0.010684,0.13331 0,0.16536 -0.00779,0.0234 -0.025278,0.0428 -0.033073,0.0661 -0.010459,0.0314 0.00802,0.0671 0,0.0992 -0.00598,0.0239 -0.025278,0.0428 -0.033073,0.0661 -0.00714,0.0214 0,0.13829 0,0.16537 0,0.011 0.00349,0.0226 0,0.0331 -0.00779,0.0234 -0.025278,0.0428 -0.033073,0.0661 -0.011713,0.0351 0.011716,0.0971 0,0.1323 -0.00493,0.0148 -0.028143,0.0183 -0.033073,0.0331 -0.010459,0.0314 0,0.0661 0,0.0992 0,0.0992 0,0.19844 0,0.29765 0,0.27561 0,0.55122 0,0.82683 0,0.0772 0,0.15434 0,0.23151 0,0.022 0.00697,0.0452 0,0.0661 -0.00493,0.0148 -0.026101,0.0191 -0.033073,0.0331 -0.00493,0.01 0,0.022 0,0.0331 0,0.011 0,0.0221 0,0.0331 0,0.0661 0,0.13229 0,0.19844 0,0.011 0,0.0221 0,0.0331 0,0.011 0.00493,0.0232 0,0.0331 -0.00697,0.0139 -0.026101,0.0191 -0.033073,0.0331 -0.013229,0.0265 0.013229,0.0728 0,0.0992 -0.00697,0.0139 -0.026101,0.0191 -0.033073,0.0331 -0.00493,0.01 0,0.022 0,0.0331 0,0.011 0,0.022 0,0.0331 0,0.0772 0,0.15434 0,0.23151 0,0.011 0,0.022 0,0.0331 0,0.011 0.00493,0.0232 0,0.0331 -0.00697,0.014 -0.026101,0.0191 -0.033073,0.0331 -0.011422,0.0228 0.01161,0.15375 0,0.16536 -0.00779,0.008 -0.025278,-0.008 -0.033073,0 -0.00779,0.008 0,0.0221 0,0.0331 0,0.0661 0,0.13229 0,0.19844 0,0.49609 0,0.99219 0,1.48828 0,0.0776 0.00779,-0.0156 -0.033073,0.0661 -0.00435,0.009 0,0.11499 0,0.13229 0,0.023 -0.00598,0.1534 0,0.16536 0.00697,0.014 0.026101,0.0191 0.033073,0.0331 0.020802,0.0416 -0.047499,0.0661 0.033073,0.0661" />
  </g>
</svg>
