<?xml version="1.0" encoding="UTF-8" standalone="no"?>
<!-- Created with Inkscape (http://www.inkscape.org/) -->

<svg
   xmlns:osb="http://www.openswatchbook.org/uri/2009/osb"
   xmlns:dc="http://purl.org/dc/elements/1.1/"
   xmlns:cc="http://creativecommons.org/ns#"
   xmlns:rdf="http://www.w3.org/1999/02/22-rdf-syntax-ns#"
   xmlns:svg="http://www.w3.org/2000/svg"
   xmlns="http://www.w3.org/2000/svg"
   xmlns:sodipodi="http://sodipodi.sourceforge.net/DTD/sodipodi-0.dtd"
   xmlns:inkscape="http://www.inkscape.org/namespaces/inkscape"
   width="1024"
   height="1024"
   viewBox="0 0 270.93334 270.93335"
   version="1.1"
   id="svg58"
   inkscape:version="0.92.1 r15371"
   sodipodi:docname="map.svg">
  <defs
     id="defs52">
    <linearGradient
       id="linearGradient4901"
       osb:paint="solid">
      <stop
         style="stop-color:#000000;stop-opacity:1;"
         offset="0"
         id="stop4899" />
    </linearGradient>
    <linearGradient
       id="linearGradient4895"
       osb:paint="solid">
      <stop
         style="stop-color:#000000;stop-opacity:1;"
         offset="0"
         id="stop4893" />
    </linearGradient>
  </defs>
  <sodipodi:namedview
     id="base"
     pagecolor="#ffffff"
     bordercolor="#666666"
     borderopacity="1.0"
     inkscape:pageopacity="0.0"
     inkscape:pageshadow="2"
     inkscape:zoom="0.70710678"
     inkscape:cx="213.17361"
     inkscape:cy="466.56442"
     inkscape:document-units="px"
     inkscape:current-layer="layer1"
     showgrid="false"
     units="px"
     inkscape:window-width="1920"
     inkscape:window-height="1053"
     inkscape:window-x="0"
     inkscape:window-y="27"
     inkscape:window-maximized="1"
     inkscape:snap-bbox="false"
     inkscape:snap-page="true" />
  <metadata
     id="metadata55">
    <rdf:RDF>
      <cc:Work
         rdf:about="">
        <dc:format>image/svg+xml</dc:format>
        <dc:type
           rdf:resource="http://purl.org/dc/dcmitype/StillImage" />
        <dc:title></dc:title>
      </cc:Work>
    </rdf:RDF>
  </metadata>
  <g
     inkscape:label="Ebene 1"
     inkscape:groupmode="layer"
     id="layer1"
     transform="translate(0,-26.066619)">
    <rect
       style="fill:#83b692;stroke-width:1.05833338;stroke:none;stroke-opacity:1;stroke-miterlimit:4;stroke-dasharray:none"
       id="rect4082"
       width="270.93335"
       height="270.93335"
       x="0"
       y="-296.99997"
       transform="scale(1,-1)" />
    <path
       style="fill:none;stroke:#33658a;stroke-opacity:1;stroke-width:3.17500014;stroke-miterlimit:4;stroke-dasharray:none"
       d="m 0,95.692545 c 0,0 37.791912,-3.741772 43.030395,16.089625 5.238483,19.8314 39.288621,32.17925 49.765586,35.92103 10.476969,3.74177 5.986839,20.95393 10.102789,31.80507 4.11595,10.85114 -4.864306,34.05014 -13.470384,42.28204 -8.606079,8.2319 -46.023815,19.45722 -49.765587,4.86431 C 35.921025,212.0617 0,218.42272 0,224.03538"
       id="path4086"
       inkscape:connector-curvature="0" />
    <path
       style="fill:none;stroke:#33658a;stroke-width:0.52916669;stroke-linecap:butt;stroke-linejoin:miter;stroke-opacity:1;stroke-miterlimit:4;stroke-dasharray:none"
       d="m 94.666869,26.066619 c 0,0 9.728611,31.459838 17.960511,34.07908 8.2319,2.61924 26.56659,23.573172 28.81166,34.798493 2.24506,11.225318 47.52052,60.990908 10.47696,63.610148 -37.04356,2.61924 -75.58382,-47.8947 -71.467869,-57.62331 C 84.564082,91.202418 32.553429,56.778101 27.689123,64.261648 22.824818,71.745197 0,68.003422 0,68.003422"
       id="path6363"
       inkscape:connector-curvature="0" />
    <path
       style="fill:none;stroke:#33658a;stroke-width:2.11666676;stroke-linecap:butt;stroke-linejoin:miter;stroke-opacity:1;stroke-miterlimit:4;stroke-dasharray:none"
       d="m 270.93334,108.78875 c 0,0 -50.54288,10.10279 -56.15554,-1.49671 -5.61266,-11.599495 -14.9671,-42.656213 -32.92761,-39.662794 -17.96051,2.993416 -18.70887,45.275454 1.12253,50.139764 19.8314,4.86431 63.23597,11.5995 63.23597,37.04356 0,25.44406 -4.49012,49.39141 -27.31494,63.98432 -22.82482,14.59292 -91.67345,6.36102 -81.57066,37.79192 10.10278,31.43089 43.77875,40.41115 43.77875,40.41115"
       id="path6365"
       inkscape:connector-curvature="0" />
    <path
       style="fill:none;stroke:#33658a;stroke-width:1.05833338;stroke-linecap:butt;stroke-linejoin:miter;stroke-opacity:1;stroke-miterlimit:4;stroke-dasharray:none"
       d="m 270.93334,218.04854 c 0,0 -39.31756,5.23848 -39.69174,20.20558 -0.37418,14.96709 -52.01065,37.04355 -31.05672,47.8947 20.95393,10.85114 41.53369,10.85114 41.53369,10.85114"
       id="path6367"
       inkscape:connector-curvature="0" />
    <path
       style="fill:none;stroke:#33658a;stroke-width:1.05833338;stroke-linecap:butt;stroke-linejoin:miter;stroke-opacity:1;stroke-miterlimit:4;stroke-dasharray:none"
       d="m 237.60262,26.066619 c 0,0 26.56659,16.866921 14.21874,29.58895 -12.34786,12.72203 -63.98433,-20.579753 -74.83548,-10.102788 -10.85114,10.476967 -34.42431,31.805075 -26.56659,43.030397 7.85773,11.225318 37.79192,51.636472 32.55343,58.745842 -5.23848,7.10937 -2.61924,67.35192 -46.77216,28.43748 -44.152931,-38.91444 -16.46381,51.63647 -17.21216,51.26229 -0.74836,-0.37417 -7.10937,39.6628 -31.056723,44.52711 -23.94735,4.8643 -84.9382583,30.30837 -79.6997754,5.23848 C 13.470384,251.7245 0,243.4926 0,243.4926"
       id="path6371"
       inkscape:connector-curvature="0" />
    <path
       sodipodi:type="star"
       style="fill:#ffdd8f;stroke:none;stroke-width:0.89358944;stroke-miterlimit:4;stroke-dasharray:none;stroke-opacity:1"
       id="path6377"
       sodipodi:sides="5"
       sodipodi:cx="70.441437"
       sodipodi:cy="49.946289"
       sodipodi:r1="5.142993"
       sodipodi:r2="2.156491"
       sodipodi:arg1="0.74194727"
       sodipodi:arg2="1.6614427"
       inkscape:flatsided="false"
       inkscape:rounded="0.27339623"
       inkscape:randomized="0"
       d="m 74.232615,53.421536 c -0.986643,0.588286 -2.860695,-1.556428 -3.986389,-1.32761 -0.854313,0.173656 -1.282409,3.10607 -1.938407,2.531899 -0.864383,-0.756564 0.596248,-3.201646 0.03077,-4.201536 -0.429153,-0.758837 -3.350334,-0.259815 -3.006979,-1.061135 0.452425,-1.055868 3.229196,-0.422297 4.005406,-1.269082 0.589082,-0.642643 -0.788212,-3.266644 0.07999,-3.187716 1.143997,0.104001 1.399505,2.940651 2.444707,3.4172 0.793226,0.361662 2.863193,-1.759082 3.056417,-0.908982 0.254603,1.120144 -2.364255,2.23972 -2.494494,3.381028 -0.09884,0.866162 2.557762,2.179472 1.808977,2.625934 z"
       inkscape:transform-center-x="0.31656094"
       inkscape:transform-center-y="-0.18020121" />
    <path
       inkscape:transform-center-y="-0.18020121"
       inkscape:transform-center-x="0.31656094"
       d="m 97.431613,72.504582 c -0.282592,0.600278 -1.652416,-0.898493 -2.302591,-0.766343 -1.104777,0.224549 -2.503753,2.112115 -3.622205,1.970631 -0.658224,-0.08327 0.343893,-1.84919 0.0173,-2.426707 -0.554954,-0.981316 -2.782444,-1.72853 -2.993506,-2.835963 -0.124212,-0.651738 1.864954,-0.244369 2.313281,-0.733444 0.761797,-0.831036 0.784108,-3.180406 1.772117,-3.723354 0.581457,-0.319531 0.808711,1.698162 1.41239,1.973414 1.02577,0.467708 3.267049,-0.237069 4.088734,0.534804 0.483573,0.454257 -1.365142,1.293891 -1.440375,1.953081 -0.127836,1.120095 1.235039,3.03389 0.754859,4.053881 z"
       inkscape:randomized="0"
       inkscape:rounded="0.27339623"
       inkscape:flatsided="false"
       sodipodi:arg2="1.0683243"
       sodipodi:arg1="0.74194727"
       sodipodi:r2="3.0909628"
       sodipodi:r1="5.142993"
       sodipodi:cy="69.029335"
       sodipodi:cx="93.640434"
       sodipodi:sides="5"
       id="path6379"
       style="fill:#ffdd8f;stroke:none;stroke-width:0.89358944;stroke-miterlimit:4;stroke-dasharray:none;stroke-opacity:1"
       sodipodi:type="star" />
    <path
       sodipodi:type="star"
       style="fill:#ffdd8f;stroke:none;stroke-width:0.89358944;stroke-miterlimit:4;stroke-dasharray:none;stroke-opacity:1"
       id="path6381"
       sodipodi:sides="5"
       sodipodi:cx="138.54172"
       sodipodi:cy="45.830338"
       sodipodi:r1="5.142993"
       sodipodi:r2="2.8985614"
       sodipodi:arg1="0.74194727"
       sodipodi:arg2="1.3125562"
       inkscape:flatsided="false"
       inkscape:rounded="0.27339623"
       inkscape:randomized="0"
       d="m 142.3329,49.305585 c -0.5399,0.661889 -2.21391,-0.842937 -3.05095,-0.6728 -0.91964,0.186928 -1.99893,2.216512 -2.87385,1.877088 -0.79633,-0.308937 0.11755,-2.36603 -0.30292,-3.109528 -0.46197,-0.81687 -2.72574,-1.21616 -2.67329,-2.153143 0.0477,-0.852822 2.28655,-0.619349 2.86373,-1.248994 0.63413,-0.691781 0.31434,-2.96814 1.22167,-3.207803 0.82583,-0.218137 1.29562,1.98325 2.0728,2.337607 0.85388,0.389325 2.92001,-0.618252 3.42832,0.170611 0.46266,0.718007 -1.48581,1.845066 -1.58266,2.693715 -0.10641,0.932397 1.49032,2.586039 0.89715,3.313247 z"
       inkscape:transform-center-x="0.31656094"
       inkscape:transform-center-y="-0.18020121" />
    <path
       inkscape:transform-center-y="-0.18020121"
       inkscape:transform-center-x="0.31656094"
       d="m 135.59771,103.5613 c -0.5337,0.692 -2.19456,-1.1275 -3.05094,-0.95343 -0.96282,0.1957 -1.94851,2.48797 -2.87385,2.15772 -0.82306,-0.29374 0.39416,-2.43557 -0.036,-3.19625 -0.48365,-0.85522 -2.96832,-1.08432 -2.94018,-2.066423 0.025,-0.873539 2.43816,-0.377762 3.02868,-1.021958 0.6639,-0.724258 0.11398,-3.158114 1.05671,-3.43484 0.83852,-0.246136 1.11271,2.202098 1.90786,2.564644 0.89397,0.407604 3.03877,-0.867504 3.59327,-0.05643 0.4932,0.721419 -1.75047,1.738733 -1.84956,2.606993 -0.11141,0.97617 1.76407,2.62197 1.16404,3.39997 z"
       inkscape:randomized="0"
       inkscape:rounded="0.27339623"
       inkscape:flatsided="false"
       sodipodi:arg2="1.2852842"
       sodipodi:arg1="0.74194727"
       sodipodi:r2="2.6282113"
       sodipodi:r1="5.142993"
       sodipodi:cy="100.08605"
       sodipodi:cx="131.80653"
       sodipodi:sides="5"
       id="path6383"
       style="fill:#ffdd8f;stroke:none;stroke-width:0.89358944;stroke-miterlimit:4;stroke-dasharray:none;stroke-opacity:1"
       sodipodi:type="star" />
    <path
       sodipodi:type="star"
       style="fill:#ffdd8f;stroke:none;stroke-width:0.89358944;stroke-miterlimit:4;stroke-dasharray:none;stroke-opacity:1"
       id="path6385"
       sodipodi:sides="6"
       sodipodi:cx="111.60096"
       sodipodi:cy="115.05315"
       sodipodi:r1="5.142993"
       sodipodi:r2="1.9805131"
       sodipodi:arg1="0.74194727"
       sodipodi:arg2="1.265546"
       inkscape:flatsided="false"
       inkscape:rounded="0.27339623"
       inkscape:randomized="0"
       d="m 115.39214,118.52839 c -0.65915,0.71908 -2.26559,-1.87945 -3.19597,-1.58629 -0.93038,0.29317 -0.75696,3.34323 -1.70927,3.13193 -0.95232,-0.21131 0.49485,-2.90179 -0.22422,-3.56094 -0.71908,-0.65915 -3.2738,1.01607 -3.56696,0.0857 -0.29316,-0.93038 2.76045,-1.02233 2.97175,-1.97465 0.21131,-0.95231 -2.51684,-2.32716 -1.85769,-3.04623 0.65915,-0.71908 2.26559,1.87945 3.19597,1.58629 0.93038,-0.29316 0.75696,-3.34323 1.70927,-3.13192 0.95232,0.2113 -0.49485,2.90178 0.22422,3.56093 0.71908,0.65916 3.2738,-1.01607 3.56696,-0.0857 0.29316,0.93038 -2.76045,1.02234 -2.97175,1.97465 -0.21131,0.95231 2.51684,2.32716 1.85769,3.04623 z"
       inkscape:transform-center-x="0.31656094"
       inkscape:transform-center-y="-0.18020121" />
    <path
       sodipodi:type="star"
       style="fill:#ffdd8f;stroke:none;stroke-width:0.89358944;stroke-miterlimit:4;stroke-dasharray:none;stroke-opacity:1"
       id="path6387"
       sodipodi:sides="6"
       sodipodi:cx="60.712837"
       sodipodi:cy="167.0638"
       sodipodi:r1="5.142993"
       sodipodi:r2="2.7415042"
       sodipodi:arg1="0.74194727"
       sodipodi:arg2="1.265546"
       inkscape:flatsided="false"
       inkscape:rounded="0.27339623"
       inkscape:randomized="0"
       d="m 64.504016,170.53904 c -0.570759,0.62265 -2.161654,-1.11432 -2.967269,-0.86047 -0.805615,0.25384 -1.113366,2.58908 -1.937973,2.40611 -0.824606,-0.18297 -0.115793,-2.42921 -0.738439,-2.99997 -0.622646,-0.57076 -2.798891,0.33034 -3.052739,-0.47528 -0.253848,-0.80561 2.045861,-1.31488 2.22883,-2.13949 0.182969,-0.82461 -1.685526,-2.25874 -1.114767,-2.88139 0.570759,-0.62265 2.161654,1.11433 2.967269,0.86048 0.805614,-0.25385 1.113365,-2.58908 1.937972,-2.40611 0.824607,0.18297 0.115793,2.42921 0.738439,2.99997 0.622646,0.57075 2.798892,-0.33034 3.05274,0.47527 0.253848,0.80562 -2.045862,1.31489 -2.22883,2.1395 -0.182969,0.8246 1.685526,2.25874 1.114767,2.88138 z"
       inkscape:transform-center-x="0.31656094"
       inkscape:transform-center-y="-0.18020121" />
    <path
       inkscape:transform-center-y="-0.18020121"
       inkscape:transform-center-x="0.31656094"
       d="m 186.48583,194.4864 c -1.13798,1.24144 1.62161,5.53489 0.0577,6.15963 -1.56393,0.62475 -2.52203,-4.38834 -4.20215,-4.50403 -1.68012,-0.11569 -3.3163,4.71876 -4.77983,3.88556 -1.46354,-0.83321 1.85848,-4.7079 0.90139,-6.0936 -0.95708,-1.38569 -5.75695,0.34932 -6.01803,-1.31441 -0.26107,-1.66374 4.83953,-1.48231 5.32618,-3.09455 0.48665,-1.61225 -3.86251,-4.28318 -2.72453,-5.52462 1.13799,-1.24143 4.17631,2.8595 5.74024,2.23475 1.56392,-0.62474 0.94048,-5.69034 2.6206,-5.57466 1.68011,0.11569 0.36824,5.04804 1.83178,5.88124 1.46353,0.83321 5.03527,-2.81257 5.99236,-1.42687 0.95708,1.3857 -3.71712,3.4353 -3.45604,5.09903 0.26107,1.66374 5.3384,2.18313 4.85175,3.79538 -0.48665,1.61225 -5.00341,-0.76429 -6.1414,0.47715 z"
       inkscape:randomized="0"
       inkscape:rounded="0.27339623"
       inkscape:flatsided="false"
       sodipodi:arg2="1.1907462"
       sodipodi:arg1="0.74194727"
       sodipodi:r2="10.37519"
       sodipodi:r1="5.142993"
       sodipodi:cy="191.01115"
       sodipodi:cx="182.69466"
       sodipodi:sides="7"
       id="path6389"
       style="fill:#ffdd8f;stroke:none;stroke-width:0.89358944;stroke-miterlimit:4;stroke-dasharray:none;stroke-opacity:1"
       sodipodi:type="star" />
    <path
       inkscape:transform-center-y="-0.18020121"
       inkscape:transform-center-x="0.31656094"
       d="m 42.801726,194.86058 c -0.632207,0.68968 -2.118554,-2.10127 -2.966567,-1.70602 -0.848013,0.39524 0.333502,3.32827 -0.601214,3.36891 -0.934716,0.0406 -0.01222,-2.98386 -0.891342,-3.30402 -0.879117,-0.32015 -2.117621,2.58927 -2.807302,1.95706 -0.689681,-0.63221 2.101266,-2.11856 1.706019,-2.96657 -0.395247,-0.84801 -3.328271,0.3335 -3.368911,-0.60121 -0.04064,-0.93472 2.983863,-0.0122 3.304017,-0.89134 0.320155,-0.87912 -2.589264,-2.11763 -1.957057,-2.80731 0.632208,-0.68968 2.118554,2.10127 2.966567,1.70602 0.848013,-0.39524 -0.333502,-3.32827 0.601214,-3.36891 0.934717,-0.0406 0.01223,2.98386 0.891342,3.30402 0.879117,0.32015 2.117622,-2.58927 2.807303,-1.95706 0.689681,0.63221 -2.101267,2.11856 -1.70602,2.96657 0.395247,0.84801 3.328272,-0.3335 3.368911,0.60121 0.04064,0.93472 -2.983863,0.0122 -3.304017,0.89134 -0.320154,0.87912 2.589265,2.11763 1.957057,2.80731 z"
       inkscape:randomized="0"
       inkscape:rounded="0.27339623"
       inkscape:flatsided="false"
       sodipodi:arg2="1.1346464"
       sodipodi:arg1="0.74194727"
       sodipodi:r2="1.9519606"
       sodipodi:r1="5.142993"
       sodipodi:cy="191.38533"
       sodipodi:cx="39.010548"
       sodipodi:sides="8"
       id="path6391"
       style="fill:#ffdd8f;stroke:none;stroke-width:0.89358944;stroke-miterlimit:4;stroke-dasharray:none;stroke-opacity:1"
       sodipodi:type="star" />
    <path
       sodipodi:type="star"
       style="fill:#ffdd8f;stroke:none;stroke-width:0.89358944;stroke-miterlimit:4;stroke-dasharray:none;stroke-opacity:1"
       id="path6393"
       sodipodi:sides="5"
       sodipodi:cx="23.669275"
       sodipodi:cy="148.35493"
       sodipodi:r1="5.142993"
       sodipodi:r2="2.6049321"
       sodipodi:arg1="0.74194727"
       sodipodi:arg2="1.3702658"
       inkscape:flatsided="false"
       inkscape:rounded="0.27339623"
       inkscape:randomized="0"
       d="m 27.460454,151.83018 c -0.628091,0.68519 -2.361423,-1.10766 -3.272304,-0.92251 -0.910881,0.18514 -1.806747,2.51241 -2.652492,2.1268 -0.845746,-0.38561 0.32373,-2.58813 -0.133834,-3.39722 -0.457564,-0.80908 -2.947767,-0.94194 -2.842376,-1.86545 0.105392,-0.92351 2.5615,-0.49189 3.189591,-1.17708 0.628091,-0.68519 -0.01507,-3.09457 0.895807,-3.27972 0.910881,-0.18515 1.259364,2.28413 2.105109,2.66974 0.845746,0.38562 2.938451,-0.97061 3.396015,-0.16152 0.457564,0.80909 -1.78317,1.90356 -1.888561,2.82707 -0.105392,0.92352 1.831136,2.4947 1.203045,3.17989 z"
       inkscape:transform-center-x="0.31656094"
       inkscape:transform-center-y="-0.18020121" />
    <path
       inkscape:transform-center-y="-0.18020121"
       inkscape:transform-center-x="0.31656094"
       d="m 27.834632,49.305588 c -0.727374,0.793499 -2.275979,-2.583929 -3.275606,-2.184608 -0.999627,0.399322 0.205023,3.914151 -0.868869,3.840205 -1.073892,-0.07395 0.601148,-3.390485 -0.334312,-3.923052 -0.93546,-0.532567 -2.932376,2.600726 -3.544124,1.715019 -0.611748,-0.885707 3.025599,-1.643937 2.858726,-2.707359 -0.166872,-1.063422 -3.861636,-0.671097 -3.550581,-1.70161 0.311055,-1.030514 3.171711,1.34053 3.899085,0.547031 0.727374,-0.793498 -1.883006,-3.437571 -0.883378,-3.836893 0.999627,-0.399322 0.92946,3.315551 2.003353,3.389496 1.073892,0.07394 1.513566,-3.615484 2.449026,-3.082917 0.93546,0.532567 -2.012692,2.793894 -1.400944,3.679601 0.611748,0.885707 3.770392,-1.070863 3.937264,-0.0074 0.166872,1.063422 -3.439247,0.168377 -3.750302,1.198891 -0.311055,1.030513 3.188036,2.280139 2.460662,3.073637 z"
       inkscape:randomized="0"
       inkscape:rounded="0.27339623"
       inkscape:flatsided="false"
       sodipodi:arg2="1.1907462"
       sodipodi:arg1="0.74194727"
       sodipodi:r2="1.3898073"
       sodipodi:r1="5.142993"
       sodipodi:cy="45.830341"
       sodipodi:cx="24.043453"
       sodipodi:sides="7"
       id="path6395"
       style="fill:#ffdd8f;stroke:none;stroke-width:0.89358944;stroke-miterlimit:4;stroke-dasharray:none;stroke-opacity:1"
       sodipodi:type="star" />
    <path
       sodipodi:type="star"
       style="fill:#ffdd8f;stroke:none;stroke-width:0.89358944;stroke-miterlimit:4;stroke-dasharray:none;stroke-opacity:1"
       id="path6397"
       sodipodi:sides="8"
       sodipodi:cx="232.83443"
       sodipodi:cy="79.880478"
       sodipodi:r1="5.142993"
       sodipodi:r2="3.5644853"
       sodipodi:arg1="0.74194727"
       sodipodi:arg2="1.1346464"
       inkscape:flatsided="false"
       inkscape:rounded="0.27339623"
       inkscape:randomized="0"
       d="m 236.62561,83.355725 c -0.42461,0.463206 -1.71581,-0.509909 -2.28536,-0.244452 -0.56954,0.265457 -0.65465,1.880049 -1.28243,1.907344 -0.62777,0.02729 -0.85269,-1.573818 -1.44313,-1.788841 -0.59044,-0.215023 -1.7923,0.866486 -2.25551,0.44188 -0.46321,-0.424605 0.50991,-1.715805 0.24445,-2.285351 -0.26546,-0.569545 -1.88005,-0.654652 -1.90734,-1.28243 -0.0273,-0.627777 1.57382,-0.852698 1.78884,-1.443134 0.21502,-0.590436 -0.86649,-1.792304 -0.44188,-2.25551 0.4246,-0.463206 1.7158,0.509908 2.28535,0.244451 0.56955,-0.265457 0.65465,-1.880048 1.28243,-1.907343 0.62778,-0.02729 0.8527,1.573818 1.44313,1.788841 0.59044,0.215023 1.79231,-0.866486 2.25551,-0.441881 0.46321,0.424606 -0.5099,1.715806 -0.24445,2.285352 0.26546,0.569545 1.88005,0.654652 1.90735,1.28243 0.0273,0.627777 -1.57382,0.852698 -1.78884,1.443134 -0.21503,0.590435 0.86648,1.792304 0.44188,2.25551 z"
       inkscape:transform-center-x="0.31656094"
       inkscape:transform-center-y="-0.18020121" />
    <path
       inkscape:transform-center-y="-0.18020121"
       inkscape:transform-center-x="0.31656094"
       d="m 226.14863,164.55221 c -0.6212,0.67767 -2.22694,-1.56988 -3.10374,-1.2936 -0.87681,0.27628 -0.90402,3.03837 -1.8015,2.83924 -0.89748,-0.19914 0.24609,-2.71353 -0.43158,-3.33473 -0.67767,-0.62119 -3.08332,0.73629 -3.3596,-0.14052 -0.27628,-0.87681 2.47303,-1.14365 2.67217,-2.04112 0.19913,-0.89748 -2.1793,-2.30209 -1.55811,-2.97976 0.6212,-0.67767 2.22694,1.56988 3.10375,1.2936 0.87681,-0.27628 0.90402,-3.03837 1.8015,-2.83924 0.89747,0.19914 -0.24609,2.71353 0.43158,3.33473 0.67767,0.62119 3.08331,-0.73628 3.35959,0.14052 0.27628,0.87681 -2.47302,1.14365 -2.67216,2.04112 -0.19914,0.89748 2.1793,2.30209 1.5581,2.97976 z"
       inkscape:randomized="0"
       inkscape:rounded="0.27339623"
       inkscape:flatsided="false"
       sodipodi:arg2="1.265546"
       sodipodi:arg1="0.74194727"
       sodipodi:r2="2.2873874"
       sodipodi:r1="5.142993"
       sodipodi:cy="161.07697"
       sodipodi:cx="222.35745"
       sodipodi:sides="6"
       id="path6399"
       style="fill:#ffdd8f;stroke:none;stroke-width:0.89358944;stroke-miterlimit:4;stroke-dasharray:none;stroke-opacity:1"
       sodipodi:type="star" />
    <path
       sodipodi:type="star"
       style="fill:#ffdd8f;stroke:none;stroke-width:0.89358944;stroke-miterlimit:4;stroke-dasharray:none;stroke-opacity:1"
       id="path6401"
       sodipodi:sides="5"
       sodipodi:cx="245.93063"
       sodipodi:cy="247.88611"
       sodipodi:r1="5.142993"
       sodipodi:r2="2.1739889"
       sodipodi:arg1="0.74194727"
       sodipodi:arg2="1.3439486"
       inkscape:flatsided="false"
       inkscape:rounded="0.27339623"
       inkscape:randomized="0"
       d="m 249.72181,251.36136 c -0.64039,0.73662 -2.34572,-1.55138 -3.30223,-1.35696 -0.98212,0.19963 -1.70005,2.95288 -2.62256,2.56124 -0.89846,-0.38142 0.75058,-2.71031 0.27009,-3.55993 -0.49335,-0.87236 -3.33369,-0.70435 -3.2463,-1.70274 0.0851,-0.97235 2.8096,-0.12369 3.46916,-0.8432 0.67721,-0.73878 -0.36029,-3.38819 0.61623,-3.61359 0.95107,-0.21953 0.98586,2.63387 1.87397,3.0388 0.91189,0.41577 3.11102,-1.38967 3.62716,-0.53059 0.50267,0.83668 -2.20032,1.75152 -2.31099,2.72129 -0.11363,0.99574 2.28301,2.52933 1.62547,3.28568 z"
       inkscape:transform-center-x="0.31656094"
       inkscape:transform-center-y="-0.18020121" />
    <path
       inkscape:transform-center-y="-0.18020121"
       inkscape:transform-center-x="0.31656094"
       d="m 187.60836,260.34161 c -2.56418,2.79729 6.53373,12.14195 3.00978,13.54966 -3.52395,1.40772 -3.3685,-11.63339 -7.15425,-11.89406 -3.78575,-0.26068 -5.41925,12.67865 -8.71699,10.80121 -3.29774,-1.87744 6.99513,-9.8869 4.83855,-13.00925 -2.15657,-3.12235 -13.29141,3.66808 -13.87968,-0.0808 -0.58827,-3.74885 12.09128,-0.69538 13.18783,-4.32821 1.09655,-3.63283 -11.15488,-8.10463 -8.5907,-10.90193 2.56419,-2.79729 8.08245,9.01979 11.6064,7.61207 3.52395,-1.40771 -0.61849,-13.77439 3.16727,-13.51371 3.78575,0.26067 -2.01263,11.94285 1.28511,13.82029 3.29775,1.87744 10.38364,-9.07175 12.54021,-5.9494 2.15657,3.12235 -10.59215,5.87272 -10.00389,9.62156 0.58827,3.74884 13.56667,2.46211 12.47012,6.09494 -1.09655,3.63283 -11.19557,-4.6197 -13.75976,-1.82241 z"
       inkscape:randomized="0"
       inkscape:rounded="0.27339623"
       inkscape:flatsided="false"
       sodipodi:arg2="1.1907462"
       sodipodi:arg1="0.74194727"
       sodipodi:r2="18.333044"
       sodipodi:r1="5.142993"
       sodipodi:cy="256.86636"
       sodipodi:cx="183.81718"
       sodipodi:sides="7"
       id="path6403"
       style="fill:#ffdd8f;stroke:none;stroke-width:0.89358944;stroke-miterlimit:4;stroke-dasharray:none;stroke-opacity:1"
       sodipodi:type="star" />
    <path
       sodipodi:type="star"
       style="fill:#ffdd8f;stroke:none;stroke-width:0.89358944;stroke-miterlimit:4;stroke-dasharray:none;stroke-opacity:1"
       id="path6405"
       sodipodi:sides="5"
       sodipodi:cx="110.47842"
       sodipodi:cy="279.31699"
       sodipodi:r1="5.142993"
       sodipodi:r2="1.8169111"
       sodipodi:arg1="0.74194727"
       sodipodi:arg2="1.5690202"
       inkscape:flatsided="false"
       inkscape:rounded="0.27339623"
       inkscape:randomized="0"
       d="m 114.26959,282.79223 c -0.91342,0.66611 -2.68009,-1.88352 -3.78795,-1.65834 -0.95706,0.19454 -1.34572,3.43528 -2.13684,2.86263 -0.91577,-0.66288 0.96314,-3.13097 0.40663,-4.11501 -0.48076,-0.8501 -3.683,-0.2183 -3.38284,-1.14766 0.34745,-1.07579 3.27535,-0.0515 4.03926,-0.88488 0.65993,-0.71993 -0.93049,-3.57019 0.0461,-3.57192 1.1305,-0.002 1.06113,3.09913 2.08977,3.56813 0.88862,0.40516 3.10792,-1.98821 3.41135,-1.05991 0.35125,1.07456 -2.61954,1.96688 -2.74771,3.0901 -0.11074,0.97034 2.85129,2.34142 2.06219,2.91686 z"
       inkscape:transform-center-x="0.31656094"
       inkscape:transform-center-y="-0.18020121" />
    <path
       inkscape:transform-center-y="-0.18020121"
       inkscape:transform-center-x="0.31656094"
       d="m 71.987552,254.72892 c -1.067596,0.52539 -3.0188,-1.43233 -4.184827,-1.19531 -0.794121,0.16142 -1.174985,2.98053 -1.73997,2.3996 -0.829581,-0.85299 0.429374,-3.31366 -0.156367,-4.34938 -0.398918,-0.70537 -3.197747,-0.19644 -2.819842,-0.91329 0.554887,-1.05256 3.284168,-0.61562 4.088186,-1.49274 0.547576,-0.59737 -0.801331,-3.10195 -0.0028,-2.96406 1.17252,0.20247 1.600354,2.9332 2.683006,3.42682 0.737338,0.33618 2.702496,-1.72067 2.818118,-0.9186 0.16977,1.1777 -2.295095,2.42844 -2.429998,3.61064 -0.09188,0.80513 2.471566,2.03851 1.744482,2.39632 z"
       inkscape:randomized="0"
       inkscape:rounded="0.27339623"
       inkscape:flatsided="false"
       sodipodi:arg2="1.7417687"
       sodipodi:arg1="0.74194727"
       sodipodi:r2="2.3136628"
       sodipodi:r1="5.142993"
       sodipodi:cy="251.25368"
       sodipodi:cx="68.196373"
       sodipodi:sides="5"
       id="path6407"
       style="fill:#ffdd8f;stroke:none;stroke-width:0.89358944;stroke-miterlimit:4;stroke-dasharray:none;stroke-opacity:1"
       sodipodi:type="star" />
    <path
       sodipodi:type="star"
       style="fill:#ffdd8f;stroke:none;stroke-width:0.89358944;stroke-miterlimit:4;stroke-dasharray:none;stroke-opacity:1"
       id="path6409"
       sodipodi:sides="5"
       sodipodi:cx="26.662687"
       sodipodi:cy="254.62128"
       sodipodi:r1="5.142993"
       sodipodi:r2="2.6030346"
       sodipodi:arg1="0.74194727"
       sodipodi:arg2="1.1227256"
       inkscape:flatsided="false"
       inkscape:rounded="0.27339623"
       inkscape:randomized="0"
       d="m 30.453866,258.09652 c -0.37529,0.69622 -1.888401,-1.28671 -2.663473,-1.12917 -1.07439,0.21838 -2.182724,2.53 -3.261323,2.33346 -0.778108,-0.14178 0.640185,-2.19359 0.250848,-2.88204 -0.539693,-0.95433 -3.080667,-1.29409 -3.227058,-2.38063 -0.105606,-0.78384 2.284058,-0.069 2.818506,-0.65203 0.740841,-0.80818 0.278767,-3.32978 1.266892,-3.80477 0.71284,-0.34265 0.77144,2.15095 1.491084,2.47907 0.997558,0.45484 3.252955,-0.76383 4.01004,0.0292 0.546166,0.57207 -1.807282,1.39836 -1.896965,2.18418 -0.124316,1.08929 1.73167,2.85771 1.211449,3.82278 z"
       inkscape:transform-center-x="0.31656094"
       inkscape:transform-center-y="-0.18020121" />
    <path
       inkscape:transform-center-y="-0.18020121"
       inkscape:transform-center-x="0.31656094"
       d="m 55.897925,268.94766 c -0.650985,0.74956 -2.352036,-1.65765 -3.324931,-1.4599 -0.99733,0.20272 -1.662863,3.06142 -2.599865,2.66419 -0.914044,-0.3875 0.849703,-2.74916 0.360988,-3.61333 -0.500989,-0.88588 -3.425434,-0.63545 -3.337197,-1.64934 0.08607,-0.98905 2.877181,-0.0414 3.548034,-0.77326 0.687702,-0.75022 -0.454172,-3.45415 0.537364,-3.68354 0.967241,-0.22377 0.928493,2.72356 1.831817,3.13543 0.926013,0.42221 3.14474,-1.49933 3.669307,-0.62721 0.511713,0.85075 -2.303342,1.72467 -2.415909,2.71106 -0.115395,1.01116 2.397728,2.52751 1.730392,3.2959 z"
       inkscape:randomized="0"
       inkscape:rounded="0.27339623"
       inkscape:flatsided="false"
       sodipodi:arg2="1.3434473"
       sodipodi:arg1="0.74194727"
       sodipodi:r2="2.0685758"
       sodipodi:r1="5.142993"
       sodipodi:cy="265.47241"
       sodipodi:cx="52.106747"
       sodipodi:sides="5"
       id="path6411"
       style="fill:#ffdd8f;stroke:none;stroke-width:0.89358944;stroke-miterlimit:4;stroke-dasharray:none;stroke-opacity:1"
       sodipodi:type="star" />
    <path
       sodipodi:type="star"
       style="fill:#ffdd8f;stroke:none;stroke-width:0.89358944;stroke-miterlimit:4;stroke-dasharray:none;stroke-opacity:1"
       id="path6413"
       sodipodi:sides="5"
       sodipodi:cx="135.54829"
       sodipodi:cy="213.08759"
       sodipodi:r1="5.142993"
       sodipodi:r2="1.8363135"
       sodipodi:arg1="0.74194727"
       sodipodi:arg2="1.1614734"
       inkscape:flatsided="false"
       inkscape:rounded="0.27339623"
       inkscape:randomized="0"
       d="m 139.33947,216.56283 c -0.49268,0.83485 -2.11038,-1.98372 -3.06034,-1.79063 -1.11032,0.22568 -1.7585,3.24106 -2.86445,2.99492 -0.94624,-0.21059 1.23448,-2.6201 0.75729,-3.4639 -0.55774,-0.98623 -3.62583,-0.67088 -3.7335,-1.79877 -0.0921,-0.965 2.87334,0.36441 3.52838,-0.35018 0.76561,-0.8352 -0.4824,-3.65568 0.55702,-4.10662 0.8893,-0.38581 0.54133,2.84532 1.42336,3.24748 1.03091,0.47005 3.3277,-1.58845 4.07776,-0.73926 0.64174,0.72655 -2.53877,1.3941 -2.64869,2.35723 -0.12847,1.12571 2.53902,2.67396 1.96317,3.64973 z"
       inkscape:transform-center-x="0.31656094"
       inkscape:transform-center-y="-0.18020121" />
    <path
       inkscape:transform-center-y="-0.18020121"
       inkscape:transform-center-x="0.31656094"
       d="m 254.5861,130.87622 c -1.44487,0.18148 -3.83962,-1.08578 -5.26666,-0.79569 -0.5641,0.11467 -0.41342,2.521 -0.65814,1.99998 -0.61908,-1.31808 -0.15387,-3.98723 -0.87074,-5.25478 -0.28337,-0.50105 -2.52536,0.38585 -2.10546,-0.008 1.06225,-0.9961 3.74452,-1.37846 4.72851,-2.45195 0.38896,-0.42433 -1.14735,-2.28253 -0.64312,-2.00485 1.2756,0.70245 2.46812,3.13529 3.79313,3.73939 0.52376,0.2388 1.81626,-1.79653 1.708,-1.23117 -0.2739,1.43023 -2.21915,3.31617 -2.38424,4.76301 -0.0653,0.57192 2.26986,1.17221 1.69872,1.24395 z"
       inkscape:randomized="0"
       inkscape:rounded="0.27339623"
       inkscape:flatsided="false"
       sodipodi:arg2="2.0741347"
       sodipodi:arg1="0.74194727"
       sodipodi:r2="3.0589357"
       sodipodi:r1="5.142993"
       sodipodi:cy="127.40097"
       sodipodi:cx="250.79492"
       sodipodi:sides="5"
       id="path6415"
       style="fill:#ffdd8f;stroke:none;stroke-width:0.89358944;stroke-miterlimit:4;stroke-dasharray:none;stroke-opacity:1"
       sodipodi:type="star" />
  </g>
</svg>
